<svg width="88" height="88" viewBox="0 0 88 88" fill="none" xmlns="http://www.w3.org/2000/svg">
<g filter="url(#filter0_d_11_5)">
<mask id="mask0_11_5" style="mask-type:luminance" maskUnits="userSpaceOnUse" x="4" y="0" width="80" height="80">
<path d="M84 40C84 17.9086 66.0914 0 44 0C21.9086 0 4 17.9086 4 40C4 62.0914 21.9086 80 44 80C66.0914 80 84 62.0914 84 40Z" fill="white"/>
</mask>
<g mask="url(#mask0_11_5)">
<path d="M60 29C60 20.1634 52.8366 13 44 13C35.1634 13 28 20.1634 28 29C28 37.8366 35.1634 45 44 45C52.8366 45 60 37.8366 60 29Z" fill="#9A9797"/>
<path d="M104 113C104 79.8629 77.1371 53 44 53C10.8629 53 -16 79.8629 -16 113C-16 146.137 10.8629 173 44 173C77.1371 173 104 146.137 104 113Z" fill="#9A9797"/>
</g>
</g>
<defs>
<filter id="filter0_d_11_5" x="0" y="13" width="88" height="75" filterUnits="userSpaceOnUse" color-interpolation-filters="sRGB">
<feFlood flood-opacity="0" result="BackgroundImageFix"/>
<feColorMatrix in="SourceAlpha" type="matrix" values="0 0 0 0 0 0 0 0 0 0 0 0 0 0 0 0 0 0 127 0" result="hardAlpha"/>
<feOffset dy="4"/>
<feGaussianBlur stdDeviation="2"/>
<feComposite in2="hardAlpha" operator="out"/>
<feColorMatrix type="matrix" values="0 0 0 0 0 0 0 0 0 0 0 0 0 0 0 0 0 0 0.25 0"/>
<feBlend mode="normal" in2="BackgroundImageFix" result="effect1_dropShadow_11_5"/>
<feBlend mode="normal" in="SourceGraphic" in2="effect1_dropShadow_11_5" result="shape"/>
</filter>
</defs>
</svg>
