<svg width="777" height="637" viewBox="0 0 777 637" fill="none" xmlns="http://www.w3.org/2000/svg">
<path d="M367.549 574.229C496.264 539.956 572.825 407.828 538.552 279.112C504.279 150.397 372.151 73.8366 243.436 108.109C114.72 142.382 38.1596 274.51 72.4325 403.226C106.705 531.941 238.833 608.502 367.549 574.229Z" fill="url(#paint0_radial_901_1299)"/>
<g style="mix-blend-mode:soft-light">
<path d="M367.549 574.229C496.264 539.956 572.825 407.828 538.552 279.112C504.279 150.397 372.151 73.8366 243.436 108.109C114.72 142.382 38.1596 274.51 72.4325 403.226C106.705 531.941 238.833 608.502 367.549 574.229Z" fill="url(#paint1_radial_901_1299)"/>
</g>
<g style="mix-blend-mode:soft-light">
<path d="M367.549 574.229C496.264 539.956 572.825 407.828 538.552 279.112C504.279 150.397 372.151 73.8366 243.436 108.109C114.72 142.382 38.1596 274.51 72.4325 403.226C106.705 531.941 238.833 608.502 367.549 574.229Z" fill="url(#paint2_radial_901_1299)"/>
</g>
<g style="mix-blend-mode:overlay">
<path d="M367.549 574.229C496.264 539.956 572.825 407.828 538.552 279.112C504.279 150.397 372.151 73.8366 243.436 108.109C114.72 142.382 38.1596 274.51 72.4325 403.226C106.705 531.941 238.833 608.502 367.549 574.229Z" fill="url(#paint3_radial_901_1299)" fill-opacity="0.7"/>
</g>
<mask id="mask0_901_1299" style="mask-type:alpha" maskUnits="userSpaceOnUse" x="64" y="99" width="483" height="484">
<path d="M367.549 574.229C496.264 539.956 572.825 407.828 538.552 279.112C504.279 150.397 372.151 73.8366 243.436 108.109C114.72 142.382 38.1596 274.51 72.4325 403.226C106.705 531.941 238.833 608.502 367.549 574.229Z" fill="white"/>
</mask>
<g mask="url(#mask0_901_1299)">
<g filter="url(#filter0_f_901_1299)">
<path d="M69.3325 396.93C68.7039 393.551 69.7053 392.929 70.9185 396.207C72.2663 399.849 73.5797 407.542 74.9512 412.028C78.5828 423.907 83.1988 433.848 87.3533 441.827C100.741 467.539 113.892 482.903 125.756 495.728C164.756 537.885 199.782 555.164 232.483 566.508C280.417 583.137 323.697 580.962 365.18 571.9C366.226 571.671 368.192 578.36 367.408 579.508C365.995 581.577 363.305 580.613 361.411 581.047C355.969 582.294 350.478 583.359 344.938 584.234C328.509 586.83 311.623 587.703 294.221 586.508C246.905 583.259 193.389 570.371 133.541 509.875C129.776 506.069 125.968 502.021 122.102 497.61C119.011 494.083 115.887 490.355 112.719 486.321C102.3 473.053 77.1035 438.696 69.3325 396.93ZM367.267 579.622C366.289 579.915 364.367 573.704 364.96 572.15C365.857 569.802 368.419 570.857 369.892 570.364C376.01 568.319 382.077 566.086 388.088 563.649C404.569 556.967 420.635 548.775 436.136 538.618C474.585 513.426 514.25 480.067 536.584 404.077C538.006 399.241 539.338 394.157 540.548 388.751C544.226 372.323 552.875 329.011 538.021 281.987C536.768 278.023 537.35 275.294 538.814 278.591C540.677 282.789 542.828 292.002 543.931 296.916C547.463 312.652 548.578 326.458 548.888 337.766C549.872 373.6 543.856 396.131 537.926 415.184C518.653 477.116 488.074 508.156 456.901 532.911C428.942 555.114 398.821 570.169 367.267 579.622Z" fill="#401C02"/>
</g>
<g filter="url(#filter1_f_901_1299)">
<path d="M69.3325 396.93C68.7039 393.551 69.7053 392.929 70.9185 396.207C72.2663 399.849 73.5797 407.542 74.9512 412.028C78.5828 423.907 83.1988 433.848 87.3533 441.827C100.741 467.539 113.892 482.903 125.756 495.728C164.756 537.885 199.782 555.164 232.483 566.508C280.417 583.137 323.697 580.962 365.18 571.9C366.226 571.671 368.192 578.36 367.408 579.508C365.995 581.577 363.305 580.613 361.411 581.047C355.969 582.294 350.478 583.359 344.938 584.234C328.509 586.83 311.623 587.703 294.221 586.508C246.905 583.259 193.389 570.371 133.541 509.875C129.776 506.069 125.968 502.021 122.102 497.61C119.011 494.083 115.887 490.355 112.719 486.321C102.3 473.053 77.1035 438.696 69.3325 396.93ZM367.267 579.622C366.289 579.915 364.367 573.704 364.96 572.15C365.857 569.802 368.419 570.857 369.892 570.364C376.01 568.319 382.077 566.086 388.088 563.649C404.569 556.967 420.635 548.775 436.136 538.618C474.585 513.426 514.25 480.067 536.584 404.077C538.006 399.241 539.338 394.157 540.548 388.751C544.226 372.323 552.875 329.011 538.021 281.987C536.768 278.023 537.35 275.294 538.814 278.591C540.677 282.789 542.828 292.002 543.931 296.916C547.463 312.652 548.578 326.458 548.888 337.766C549.872 373.6 543.856 396.131 537.926 415.184C518.653 477.116 488.074 508.156 456.901 532.911C428.942 555.114 398.821 570.169 367.267 579.622Z" fill="#401C02"/>
</g>
</g>
<path d="M692.285 200.834C763.001 170.665 819.386 318.065 618.579 315.923C532.73 134.484 690.108 123.983 692.285 200.834Z" fill="url(#paint4_linear_901_1299)"/>
<mask id="mask1_901_1299" style="mask-type:alpha" maskUnits="userSpaceOnUse" x="592" y="155" width="166" height="161">
<path d="M692.286 200.835C763.002 170.665 819.387 318.066 618.58 315.924C532.731 134.484 690.109 123.983 692.286 200.835Z" fill="url(#paint5_linear_901_1299)"/>
</mask>
<g mask="url(#mask1_901_1299)">
<g filter="url(#filter2_f_901_1299)">
<path d="M606.014 196.325C608.811 187.262 615.87 179.098 625.218 174.099C634.565 169.1 646.049 167.301 657.268 169.385C662.848 170.474 668.383 172.45 673.51 175.471C678.637 178.493 683.322 182.409 687.227 187.133C691.133 191.858 694.166 197.331 696.227 203.098C698.288 208.864 699.192 214.804 699.42 220.574L676.421 205.845C677.816 205.3 679.152 204.847 680.547 204.302C681.943 203.757 683.371 203.364 684.8 202.972C686.228 202.579 687.69 202.338 689.211 202.005C690.733 201.671 692.228 201.583 693.69 201.342C699.79 200.802 706.03 201.268 711.955 202.839C717.88 204.41 723.489 207.087 728.378 210.479C733.267 213.872 737.377 218.073 740.7 222.686C747.287 232.005 750.456 243.189 749.826 253.77C749.195 264.352 744.733 274.179 737.67 280.51C737.827 275.772 737.747 271.405 737.091 267.324C736.436 263.242 735.298 259.505 733.737 256.021C730.741 249.264 726.272 243.786 721.223 240.03C716.175 236.273 710.666 234.053 705.371 233.539C700.077 233.026 694.931 233.915 689.383 236.247L667.311 245.39L666.384 221.517C666.122 215.596 664.836 210.457 662.155 205.863C659.474 201.268 655.305 197.16 649.629 194.179C644.046 191.257 637.26 189.396 629.81 189.594C626.085 189.693 622.215 190.223 618.141 191.275C614.252 192.447 610.218 194.048 606.014 196.325Z" fill="#FF3E3E"/>
</g>
<g filter="url(#filter3_f_901_1299)">
<path d="M610.448 295.415C609.18 292.903 608.004 290.45 606.829 287.997C606.225 286.694 605.653 285.544 605.049 284.242C604.537 282.998 604.026 281.755 603.481 280.36L600.437 272.657C599.533 269.985 598.721 267.373 597.909 264.761C594.721 254.219 592.38 243.172 591.533 232.038C590.687 220.903 591.455 209.494 594.586 198.683L595.856 194.658C596.291 193.367 596.877 192.043 597.464 190.718L598.314 188.778C598.578 188.162 598.993 187.513 599.257 186.897L601.236 183.195C604.265 178.465 607.85 174.092 612.092 170.531C608.659 174.871 605.934 179.534 603.64 184.342L602.151 188.096C601.887 188.712 601.623 189.328 601.453 190.003L600.847 191.97C600.505 193.32 600.038 194.459 599.696 195.809L598.789 199.675C596.538 210.134 596.186 220.893 597.025 231.631C597.771 242.31 599.708 252.966 602.043 263.615C602.702 266.261 603.269 268.847 603.869 271.586L606 279.489C606.36 280.765 606.66 282.135 607.019 283.411C607.379 284.688 607.831 286.023 608.191 287.3C609.036 290.064 609.788 292.769 610.448 295.415Z" fill="#FFBF5F"/>
</g>
<g filter="url(#filter4_f_901_1299)">
<path d="M610.254 175.239C615.48 167.078 623.575 160.361 633.222 156.731C642.777 153.043 653.675 152.567 663.803 155.13C674.024 157.753 683.543 163.718 690.148 172.395C693.464 176.611 696.06 181.542 697.742 186.674C699.425 191.806 700.348 197.105 700.569 202.477L692.871 197.548C697.751 195.442 702.95 194.063 708.315 193.445C713.68 192.827 719.186 193.214 724.462 194.37C735.046 196.833 744.506 202.891 751.163 211.078C757.821 219.265 761.854 229.302 762.593 239.584C763.332 249.865 760.617 260.027 755.39 268.188C755.766 266.989 756.081 265.884 756.456 264.686C756.772 263.58 757.054 262.322 757.277 261.157C757.723 258.827 758.076 256.438 758.278 254.082C758.528 249.404 758.228 244.766 757.321 240.261C755.353 231.285 750.926 223.088 744.761 216.786C738.597 210.484 730.695 206.078 722.388 204.55C713.989 202.963 705.243 204.163 697.302 207.578L689.877 210.8L689.698 202.708C689.385 194.007 686.968 185.528 682.013 178.563C677.059 171.597 669.844 166.322 661.448 163.3C653.146 160.336 643.848 159.744 634.872 161.711C630.46 162.678 625.97 164.38 621.918 166.623C619.862 167.791 617.899 169.019 615.91 170.491C614.945 171.181 613.98 171.871 613.049 172.713C612.117 173.555 611.186 174.397 610.254 175.239Z" fill="#700000"/>
</g>
<g filter="url(#filter5_f_901_1299)">
<path d="M610.254 175.239C615.48 167.078 623.575 160.361 633.222 156.731C642.777 153.043 653.675 152.567 663.803 155.13C674.024 157.753 683.543 163.718 690.148 172.395C693.464 176.611 696.06 181.542 697.742 186.674C699.425 191.806 700.348 197.105 700.569 202.477L692.871 197.548C697.751 195.442 702.95 194.063 708.315 193.445C713.68 192.827 719.186 193.214 724.462 194.37C735.046 196.833 744.506 202.891 751.163 211.078C757.821 219.265 761.854 229.302 762.593 239.584C763.332 249.865 760.617 260.027 755.39 268.188C755.766 266.989 756.081 265.884 756.456 264.686C756.772 263.58 757.054 262.322 757.277 261.157C757.723 258.827 758.076 256.438 758.278 254.082C758.528 249.404 758.228 244.766 757.321 240.261C755.353 231.285 750.926 223.088 744.761 216.786C738.597 210.484 730.695 206.078 722.388 204.55C713.989 202.963 705.243 204.163 697.302 207.578L689.877 210.8L689.698 202.708C689.385 194.007 686.968 185.528 682.013 178.563C677.059 171.597 669.844 166.322 661.448 163.3C653.146 160.336 643.848 159.744 634.872 161.711C630.46 162.678 625.97 164.38 621.918 166.623C619.862 167.791 617.899 169.019 615.91 170.491C614.945 171.181 613.98 171.871 613.049 172.713C612.117 173.555 611.186 174.397 610.254 175.239Z" fill="#700000"/>
</g>
<g filter="url(#filter6_f_901_1299)">
<path d="M603.233 194.543C606.029 185.48 613.089 177.316 622.436 172.317C631.784 167.319 643.268 165.519 654.487 167.604C660.067 168.693 665.602 170.668 670.729 173.69C675.856 176.712 680.54 180.627 684.446 185.352C688.351 190.076 691.385 195.55 693.446 201.316C695.507 207.082 696.411 213.023 696.639 218.792L673.64 204.063C675.035 203.518 676.371 203.066 677.766 202.521C679.161 201.976 680.59 201.583 682.018 201.19C683.447 200.797 684.909 200.556 686.43 200.223C687.952 199.89 689.447 199.801 690.909 199.56C697.009 199.02 703.249 199.486 709.174 201.057C715.099 202.628 720.708 205.305 725.597 208.698C730.486 212.091 734.596 216.292 737.919 220.905C744.505 230.223 747.674 241.407 747.044 251.988C746.414 262.57 741.951 272.397 734.889 278.728C735.046 273.99 734.966 269.623 734.31 265.542C733.655 261.46 732.517 257.724 730.956 254.239C727.96 247.482 723.491 242.004 718.442 238.248C713.394 234.492 707.884 232.271 702.59 231.758C697.296 231.244 692.149 232.133 686.602 234.465L664.53 243.608L663.695 219.795C663.434 213.874 662.148 208.734 659.466 204.14C656.785 199.546 652.616 195.438 646.94 192.457C641.357 189.535 634.572 187.674 627.121 187.872C623.396 187.971 619.526 188.501 615.452 189.553C611.471 190.665 607.437 192.267 603.233 194.543Z" fill="#FF9797"/>
</g>
<g filter="url(#filter7_f_901_1299)">
<path d="M641.052 315.015C643.731 314.507 646.503 314.059 649.215 313.704C650.525 313.496 651.927 313.348 653.237 313.141C654.547 312.933 655.916 312.633 657.226 312.426L665.296 311.056C667.942 310.396 670.621 309.888 673.3 309.381C683.949 307.047 694.346 304.289 704.45 300.56C714.462 296.771 724.18 292.01 732.738 285.59L735.87 283.15C736.954 282.274 737.793 281.373 738.876 280.498L740.409 279.125C740.951 278.688 741.307 278.131 741.849 277.694L744.637 274.771C748.137 270.735 751.199 266.157 753.645 261.316C752.278 266.718 749.713 271.745 746.684 276.474L744.149 279.82C743.7 280.317 743.284 280.966 742.835 281.464L741.428 283.047C740.471 284.134 739.573 285.128 738.522 286.156L735.397 288.993C726.887 296.359 716.846 301.829 706.378 305.718C695.91 309.607 684.99 312.16 673.989 313.615C671.276 313.97 668.564 314.325 665.759 314.621L657.489 315.079C656.145 315.134 654.743 315.282 653.307 315.278C651.871 315.274 650.528 315.329 649.152 315.232C646.584 315.157 643.805 315.208 641.052 315.015Z" fill="white"/>
</g>
</g>
<g style="mix-blend-mode:soft-light">
<path d="M692.326 200.86C763.041 170.691 819.427 318.091 618.62 315.949C532.678 134.45 690.149 124.009 692.326 200.86Z" fill="url(#paint6_linear_901_1299)"/>
</g>
<g style="mix-blend-mode:soft-light">
<path d="M692.326 200.86C690.149 124.009 532.678 134.45 618.62 315.949C819.427 318.091 763.041 170.691 692.326 200.86Z" fill="url(#paint7_linear_901_1299)"/>
</g>
<mask id="mask2_901_1299" style="mask-type:alpha" maskUnits="userSpaceOnUse" x="592" y="155" width="166" height="161">
<path d="M692.285 200.834C763.001 170.665 819.386 318.065 618.579 315.923C532.73 134.484 690.108 123.983 692.285 200.834Z" fill="url(#paint8_linear_901_1299)"/>
</mask>
<g mask="url(#mask2_901_1299)">
<g filter="url(#filter8_f_901_1299)">
<path d="M677.812 167.764C680.172 169.798 682.26 172.051 684.17 174.582C685.987 177.054 687.626 179.803 688.902 182.713C690.237 185.529 691.148 188.598 691.815 191.64C692.482 194.683 692.845 197.792 692.903 200.968L692.161 200.493C695.011 199.311 697.987 198.339 701.089 197.58C704.132 196.913 707.301 196.457 710.417 196.492C713.593 196.433 716.684 196.712 719.782 197.389C722.879 198.065 725.799 199.019 728.633 200.311C722.787 198.005 716.598 197.05 710.432 197.286C707.348 197.403 704.332 197.826 701.289 198.492C698.339 199.219 695.363 200.19 692.514 201.373L691.786 201.692L691.864 200.957C691.747 197.874 691.477 194.824 690.81 191.781C690.236 188.798 689.264 185.822 688.082 182.972C685.809 177.332 682.26 172.051 677.812 167.764Z" fill="#820010"/>
</g>
<g filter="url(#filter9_f_901_1299)">
<path d="M677.812 167.764C680.172 169.798 682.26 172.051 684.17 174.582C685.987 177.054 687.626 179.803 688.902 182.713C690.237 185.529 691.148 188.598 691.815 191.64C692.482 194.683 692.845 197.792 692.903 200.968L692.161 200.493C695.011 199.311 697.987 198.339 701.089 197.58C704.132 196.913 707.301 196.457 710.417 196.492C713.593 196.433 716.684 196.712 719.782 197.389C722.879 198.065 725.799 199.019 728.633 200.311C722.787 198.005 716.598 197.05 710.432 197.286C707.348 197.403 704.332 197.826 701.289 198.492C698.339 199.219 695.363 200.19 692.514 201.373L691.786 201.692L691.864 200.957C691.747 197.874 691.477 194.824 690.81 191.781C690.236 188.798 689.264 185.822 688.082 182.972C685.809 177.332 682.26 172.051 677.812 167.764Z" fill="#820010"/>
</g>
<g filter="url(#filter10_f_901_1299)">
<path d="M677.812 167.764C680.172 169.798 682.26 172.051 684.17 174.582C685.987 177.054 687.626 179.803 688.902 182.713C690.237 185.529 691.148 188.598 691.815 191.64C692.482 194.683 692.845 197.792 692.903 200.968L692.161 200.493C695.011 199.311 697.987 198.339 701.089 197.58C704.132 196.913 707.301 196.457 710.417 196.492C713.593 196.433 716.684 196.712 719.782 197.389C722.879 198.065 725.799 199.019 728.633 200.311C722.787 198.005 716.598 197.05 710.432 197.286C707.348 197.403 704.332 197.826 701.289 198.492C698.339 199.219 695.363 200.19 692.514 201.373L691.786 201.692L691.864 200.957C691.747 197.874 691.477 194.824 690.81 191.781C690.236 188.798 689.264 185.822 688.082 182.972C685.809 177.332 682.26 172.051 677.812 167.764Z" fill="#820010"/>
</g>
</g>
<path d="M254.399 322.36C240.099 310.96 257.399 302.06 269.299 303.76C281.799 305.56 294.499 306.96 307.099 305.76C312.899 305.26 318.699 304.16 324.299 302.46C329.499 300.86 334.599 297.26 339.899 296.26C347.999 294.76 347.399 304.06 344.999 308.96C341.299 316.56 334.499 322.46 326.899 326.16C305.599 336.76 274.499 337.76 254.799 322.66C254.699 322.66 254.499 322.46 254.399 322.36Z" fill="#42210B"/>
<path d="M405.198 306.26C392.798 297.56 404.298 287.26 413.398 287.36C422.998 287.46 432.698 287.06 441.898 284.46C446.198 283.26 450.298 281.56 454.198 279.26C457.798 277.16 461.098 273.16 464.898 271.66C470.698 269.26 471.698 277.76 470.698 282.66C469.098 290.16 464.998 296.26 459.898 300.76C445.698 313.16 422.698 318.06 405.598 306.66C405.398 306.46 405.298 306.36 405.198 306.26Z" fill="#42210B"/>
<path d="M352.112 407.414C352.212 407.41 351.912 407.421 351.808 407.324C351.609 407.331 351.405 407.237 351.106 407.248C350.602 407.164 350.099 407.081 349.6 407.098C348.593 406.932 347.491 406.869 346.388 406.806C344.182 406.68 341.977 406.554 339.778 406.628C335.277 406.679 330.683 406.934 326.199 407.485L324.507 407.742L322.815 407.999C321.722 408.236 320.526 408.376 319.43 408.513C317.145 408.99 314.856 409.367 312.678 410.041L309.303 410.855L305.935 411.868C304.846 412.205 303.657 412.545 302.567 412.882L299.306 414.092C290.509 417.29 282.045 421.477 274.011 426.55C265.977 431.623 258.369 437.482 251.285 444.023C244.201 450.565 237.744 457.886 231.496 465.501L227.093 471.452L224.892 474.428L222.794 477.5L218.598 483.644C217.266 485.69 216.038 487.833 214.709 489.979L212.815 493.144L211.869 494.777L211.023 496.406L207.444 503.03L205.652 506.292L203.964 509.651L200.688 516.365C200.125 517.484 199.563 518.604 199.1 519.72L197.615 523.172L194.646 530.076L191.586 537.283C190.567 539.718 189.449 542.157 188.23 544.6C185.993 549.478 183.349 554.169 180.705 558.861C177.858 563.459 174.911 568.061 171.551 572.276C168.194 576.591 164.531 580.717 160.251 584.363C156.074 588.105 151.481 591.361 146.365 593.935C141.248 596.508 135.705 598.295 129.929 599.09C128.536 599.337 127.034 599.287 125.638 599.434C124.239 599.482 122.733 599.332 121.334 599.379C119.928 599.226 118.422 599.077 117.012 598.824C115.603 598.571 114.194 598.318 112.778 597.866C107.224 596.352 102.039 593.925 97.5309 590.774C92.9225 587.627 88.8902 583.761 85.4476 579.574C78.4589 571.104 73.8152 560.955 71.8598 550.414C69.9011 539.774 71.1237 528.527 75.7016 518.867C78.0389 513.986 81.0959 509.681 84.7694 505.855C88.4429 502.03 92.6396 498.887 97.1496 496.134C101.663 493.48 106.396 491.42 111.343 489.753L115.004 488.529C116.293 488.186 117.483 487.846 118.772 487.502L120.657 487.038L122.546 486.675L126.32 485.847L122.553 486.875L120.671 487.438L118.888 487.998C117.703 488.438 116.413 488.782 115.228 489.222L111.673 490.642C106.936 492.603 102.413 494.956 98.2062 497.799C93.9994 500.642 90.2091 503.971 86.9354 507.784C83.6617 511.596 81.0045 515.887 79.1568 520.452C75.465 529.681 75.1082 539.899 77.4264 549.327C79.7479 558.854 84.5479 567.698 91.1896 574.778C94.5088 578.269 98.2143 581.346 102.2 583.813C106.185 586.281 110.643 587.932 115.077 588.883C124.049 590.883 133.287 588.871 141.135 584.205C145.058 581.872 148.662 578.949 152.053 575.633C155.443 572.317 158.417 568.515 161.088 564.623C163.858 560.728 166.216 556.446 168.573 552.165C169.599 549.929 170.827 547.786 171.753 545.554C172.778 543.318 173.804 541.083 174.626 538.754C175.548 536.421 176.474 534.189 177.296 531.86L179.856 524.67L182.508 517.277L183.883 513.528C184.343 512.312 184.902 511.093 185.361 509.876L188.418 502.57L189.896 498.918L191.577 495.359L194.936 488.142L195.775 486.313L196.718 484.58L198.599 481.015C199.821 478.673 201.043 476.33 202.365 473.985L206.434 467.044L208.518 463.572L210.706 460.197L215.181 453.442C221.492 444.725 228.106 436.098 235.746 428.237C243.386 420.376 251.642 412.994 260.632 406.588C269.619 400.082 279.335 394.453 289.691 390.002L293.539 388.372C294.821 387.828 296.207 387.382 297.489 386.838C298.775 386.395 300.157 385.848 301.443 385.404L305.501 384.067C308.172 383.177 310.95 382.483 313.629 381.793C315.018 381.446 316.41 381.199 317.799 380.852L319.885 380.382L321.974 380.011C327.54 378.924 333.22 378.232 339.01 377.837C341.905 377.64 344.803 377.543 347.805 377.542C349.308 377.591 350.807 377.541 352.313 377.69C353.116 377.763 353.815 377.74 354.618 377.813C355.021 377.899 355.421 377.886 355.824 377.972C356.327 378.056 356.627 378.045 357.43 378.119C365.583 379.545 371.045 387.266 369.618 395.419C368.085 403.375 360.264 408.841 352.112 407.414Z" fill="black"/>
<path d="M402.029 368.414C402.622 368.194 402.819 368.087 403.215 367.974L404.104 367.644C404.697 367.424 405.294 367.304 405.787 367.087C406.876 366.75 407.969 366.513 409.158 366.173C411.34 365.599 413.525 365.126 415.614 364.755C419.888 363.911 424.172 363.367 428.463 363.022C437.045 362.334 445.55 362.348 454.085 363.261C470.953 364.995 487.419 369.645 502.369 376.846C506.128 378.521 509.8 380.599 513.368 382.58C516.944 384.761 520.512 386.742 523.794 389.133C527.27 391.317 530.455 393.812 533.741 396.303C534.561 396.875 535.384 397.548 536.107 398.224L538.473 400.146L540.839 402.067C541.662 402.74 542.382 403.316 543.108 404.092L547.547 408.145C548.27 408.821 549.093 409.494 549.716 410.174L551.789 412.305L556.035 416.565C557.384 418.02 558.737 419.576 560.087 421.031C561.437 422.487 562.786 423.942 564.04 425.501L567.795 430.077L571.551 434.654C572.698 436.016 573.851 437.578 574.994 438.84C576.141 440.202 577.387 441.561 578.633 442.92C579.256 443.6 579.88 444.279 580.499 444.859L582.462 446.694L583.395 447.663L584.425 448.529L586.388 450.364L588.447 452.095L589.477 452.961L590.503 453.727C593.376 455.832 596.341 457.733 599.397 459.332C602.452 460.93 605.697 462.221 608.929 463.113C615.489 464.794 622.395 464.862 628.725 462.648C631.889 461.541 634.937 459.937 637.672 457.944C640.403 455.851 642.821 453.369 644.929 450.596C649.041 444.955 651.508 437.968 651.473 430.965C651.537 423.959 648.797 416.847 643.718 411.615C638.736 406.279 631.719 402.913 624.352 401.06C620.717 400.081 616.896 399.51 613.081 399.138C609.266 398.766 605.462 398.693 601.561 398.725C605.352 398.397 609.243 398.066 613.151 398.235C617.055 398.304 620.967 398.572 624.791 399.244C628.616 399.916 632.454 400.987 636.109 402.565C639.764 404.144 643.236 406.228 646.329 408.926C649.321 411.627 652.034 414.937 653.861 418.678C655.688 422.419 656.825 426.483 657.166 430.674C657.848 439.055 655.632 447.535 651.27 454.685C649.089 458.261 646.298 461.556 643.094 464.466C639.886 467.275 636.166 469.702 632.222 471.435C624.237 475.005 615.053 475.615 606.597 474.098C602.369 473.34 598.224 472.078 594.366 470.407C590.508 468.736 586.743 466.861 583.164 464.58L581.834 463.724L580.505 462.869L577.946 461.154L575.483 459.335L574.25 458.376L573.017 457.417L570.651 455.496C569.828 454.823 569.105 454.147 568.382 453.471C566.836 452.122 565.386 450.67 563.94 449.318C562.49 447.866 561.141 446.41 559.691 444.958L555.752 440.888L551.916 436.915C550.57 435.559 549.23 434.404 547.884 433.048C546.541 431.793 545.195 430.437 543.855 429.281L539.633 425.721L537.57 423.89C536.851 423.313 536.131 422.737 535.411 422.161L531.096 418.804C530.376 418.228 529.656 417.652 528.84 417.179L526.587 415.654L524.335 414.129C523.615 413.553 522.799 413.08 522.082 412.604L517.481 409.657C515.945 408.608 514.319 407.862 512.786 406.913C509.724 405.115 506.368 403.527 503.213 401.932C499.964 400.54 496.709 398.949 493.367 397.761C480.09 392.704 466.09 389.973 452.274 389.737C445.365 389.569 438.479 390.101 431.713 391.229C428.332 391.843 425.05 392.454 421.779 393.364C420.193 393.818 418.608 394.271 417.125 394.822C416.432 395.045 415.643 395.372 414.95 395.595C414.554 395.708 414.257 395.818 413.964 396.028C413.768 396.135 413.668 396.138 413.571 396.242C413.471 396.245 413.275 396.352 413.375 396.348C405.676 399.509 396.95 395.9 393.79 388.202C390.722 380.301 394.431 371.571 402.029 368.414Z" fill="black"/>
<g filter="url(#filter11_f_901_1299)">
<path d="M484.177 458.377C490.304 479.026 478.53 500.732 457.881 506.859C437.232 512.986 415.525 501.212 409.399 480.563C403.272 459.914 415.045 438.207 435.695 432.081C456.344 425.954 478.05 437.727 484.177 458.377Z" fill="#E66200"/>
</g>
<path d="M440.047 437.425C439.839 437.131 439.733 436.934 439.628 436.737L439.211 436.148C439.003 435.854 438.797 435.66 438.691 435.463L438.589 435.365C438.483 435.168 438.28 435.074 438.175 434.877C436.836 433.514 435.408 432.554 434.386 431.783C431.736 430.057 429.101 428.83 427.073 427.887C422.719 426.009 418.073 424.439 412.43 422.998C410.011 422.366 407.492 421.737 404.979 421.307L404.174 421.13C403.169 420.958 402.263 420.784 401.258 420.612C400.05 420.346 398.745 420.182 397.54 420.016C394.627 419.598 392.216 419.266 390.009 419.028C388.001 418.785 386.499 418.727 384.994 418.569C383.992 418.498 383.012 419.226 382.737 420.134C382.465 421.142 382.993 422.127 383.904 422.502C385.324 423.162 386.843 423.819 388.262 424.48C390.286 425.323 392.211 426.169 394.236 427.012L408.308 432.918C412.662 434.796 416.917 436.677 420.975 438.663C422.397 439.423 424.63 440.561 426.266 441.815C426.777 442.201 427.185 442.49 427.596 442.878L427.699 442.975L427.602 443.078C427.313 443.487 427.027 443.995 426.542 444.509C425.576 445.736 424.116 447.178 422.265 448.931C418.851 452.028 415.134 455.034 411.611 457.835L398.784 467.7C398.002 468.323 397.63 469.333 397.758 470.33C397.886 471.327 398.511 472.21 399.422 472.584C400.333 472.959 401.144 473.336 402.055 473.71L414.811 479.053C418.657 480.645 422.406 482.34 425.856 484.044C427.886 485.087 429.311 485.947 430.436 486.816C430.844 487.104 431.252 487.393 431.561 487.684C431.369 487.99 431.081 488.398 430.692 488.809C429.82 489.834 428.655 491.068 426.998 492.615C424.072 495.298 420.744 497.893 417.613 500.383L407.04 508.584C405.572 509.726 404.103 510.868 402.635 512.009C401.558 512.84 400.484 513.771 399.407 514.601C398.624 515.224 398.452 516.229 398.877 517.117C399.3 517.906 400.111 518.283 400.907 518.16C401.007 518.158 401.207 518.152 401.304 518.049C402.593 517.613 403.881 517.176 405.363 516.534C407.243 515.781 409.222 515.025 411.493 513.96C413.764 512.896 415.741 512.04 417.515 511.09C419.389 510.136 421.262 509.183 423.428 507.922C427.858 505.396 431.492 502.992 434.72 500.4C436.189 499.258 438.143 497.603 440.083 495.447C441.151 494.317 441.92 493.195 442.586 491.975C442.68 491.773 442.775 491.57 442.969 491.364C443.063 491.162 443.157 490.959 443.252 490.756L443.535 490.148C443.629 489.945 443.721 489.642 443.815 489.44C444.181 488.229 444.247 487.027 444.113 485.83C443.98 484.633 443.549 483.545 442.915 482.362C442.809 482.165 442.704 481.968 442.498 481.774L442.084 481.285C441.979 481.088 441.773 480.894 441.568 480.699L441.465 480.602C441.362 480.505 441.257 480.308 441.154 480.211C440.226 479.237 439.201 478.365 437.776 477.505C435.432 475.971 433.102 474.936 431.377 474.084C427.531 472.492 423.49 471.105 418.553 469.844C416.839 469.392 415.228 469.037 413.618 468.683C415.098 467.941 416.574 467.099 418.148 466.154C423.167 463.211 427.292 460.494 431.012 457.588C432.675 456.24 434.923 454.376 437.055 451.915C438.217 450.582 439.083 449.357 439.846 448.035C439.941 447.832 440.038 447.73 440.132 447.527L440.226 447.324C440.321 447.121 440.412 446.819 440.507 446.616L440.787 445.908C440.878 445.605 440.973 445.402 441.064 445.1C441.424 443.689 441.588 442.384 441.351 441.09C441.22 439.993 440.784 438.705 440.047 437.425Z" stroke="url(#paint9_linear_901_1299)" stroke-width="4.2289" stroke-miterlimit="10"/>
<path d="M440.047 437.425C439.839 437.131 439.733 436.934 439.628 436.737L439.211 436.148C439.003 435.854 438.797 435.66 438.691 435.463L438.589 435.365C438.483 435.168 438.28 435.074 438.175 434.877C436.836 433.514 435.408 432.554 434.386 431.783C431.736 430.057 429.101 428.83 427.073 427.887C422.719 426.009 418.073 424.439 412.43 422.998C410.011 422.366 407.492 421.737 404.979 421.307L404.174 421.13C403.169 420.958 402.263 420.784 401.258 420.612C400.05 420.346 398.745 420.182 397.54 420.016C394.627 419.598 392.216 419.266 390.009 419.028C388.001 418.785 386.499 418.727 384.994 418.569C383.992 418.498 383.012 419.226 382.737 420.134C382.465 421.142 382.993 422.127 383.904 422.502C385.324 423.162 386.843 423.819 388.262 424.48C390.286 425.323 392.211 426.169 394.236 427.012L408.308 432.918C412.662 434.796 416.917 436.677 420.975 438.663C422.397 439.423 424.63 440.561 426.266 441.815C426.777 442.201 427.185 442.49 427.596 442.878L427.699 442.975L427.602 443.078C427.313 443.487 427.027 443.995 426.542 444.509C425.576 445.736 424.116 447.178 422.265 448.931C418.851 452.028 415.134 455.034 411.611 457.835L398.784 467.7C398.002 468.323 397.63 469.333 397.758 470.33C397.886 471.327 398.511 472.21 399.422 472.584C400.333 472.959 401.144 473.336 402.055 473.71L414.811 479.053C418.657 480.645 422.406 482.34 425.856 484.044C427.886 485.087 429.311 485.947 430.436 486.816C430.844 487.104 431.252 487.393 431.561 487.684C431.369 487.99 431.081 488.398 430.692 488.809C429.82 489.834 428.655 491.068 426.998 492.615C424.072 495.298 420.744 497.893 417.613 500.383L407.04 508.584C405.572 509.726 404.103 510.868 402.635 512.009C401.558 512.84 400.484 513.771 399.407 514.601C398.624 515.224 398.452 516.229 398.877 517.117C399.3 517.906 400.111 518.283 400.907 518.16C401.007 518.158 401.207 518.152 401.304 518.049C402.593 517.613 403.881 517.176 405.363 516.534C407.243 515.781 409.222 515.025 411.493 513.96C413.764 512.896 415.741 512.04 417.515 511.09C419.389 510.136 421.262 509.183 423.428 507.922C427.858 505.396 431.492 502.992 434.72 500.4C436.189 499.258 438.143 497.603 440.083 495.447C441.151 494.317 441.92 493.195 442.586 491.975C442.68 491.773 442.775 491.57 442.969 491.364C443.063 491.162 443.157 490.959 443.252 490.756L443.535 490.148C443.629 489.945 443.721 489.642 443.815 489.44C444.181 488.229 444.247 487.026 444.113 485.83C443.98 484.633 443.549 483.545 442.915 482.362C442.809 482.165 442.704 481.968 442.498 481.774L442.084 481.285C441.979 481.088 441.773 480.894 441.568 480.699L441.465 480.602C441.362 480.505 441.257 480.308 441.154 480.211C440.226 479.237 439.201 478.365 437.776 477.505C435.432 475.971 433.102 474.936 431.377 474.084C427.531 472.492 423.49 471.105 418.553 469.844C416.839 469.392 415.228 469.037 413.618 468.683C415.098 467.941 416.574 467.099 418.148 466.154C423.167 463.211 427.292 460.494 431.012 457.588C432.675 456.24 434.923 454.376 437.055 451.915C438.217 450.582 439.083 449.357 439.846 448.035C439.941 447.832 440.038 447.73 440.132 447.527L440.226 447.324C440.321 447.121 440.412 446.819 440.507 446.616L440.787 445.908C440.878 445.605 440.973 445.402 441.064 445.1C441.424 443.689 441.588 442.384 441.351 441.09C441.22 439.993 440.784 438.705 440.047 437.425Z" fill="url(#paint10_radial_901_1299)"/>
<mask id="mask3_901_1299" style="mask-type:alpha" maskUnits="userSpaceOnUse" x="64" y="99" width="483" height="484">
<path d="M367.549 574.228C496.264 539.956 572.825 407.828 538.552 279.112C504.279 150.397 372.151 73.8364 243.436 108.109C114.72 142.382 38.1596 274.51 72.4325 403.225C106.705 531.941 238.833 608.501 367.549 574.228Z" fill="url(#paint11_radial_901_1299)"/>
</mask>
<g mask="url(#mask3_901_1299)">
<g filter="url(#filter12_f_901_1299)">
<path d="M544 286.433C503.884 256.114 441.081 240.026 369.615 242.708C340.636 243.739 310.317 247.864 279.483 255.392C175.635 280.555 93.9596 337.068 61.3719 398.634C59.825 387.393 59 375.946 59 364.396C59 355.321 59.5156 346.246 60.4438 337.377C62.5063 318.196 66.7344 299.633 73.0251 281.895C77.1501 270.036 82.2033 258.589 88.0814 247.555C91.8971 240.439 96.0221 233.53 100.457 226.826C101.178 226.208 101.9 225.589 102.725 224.97C104.994 223.114 107.366 221.258 109.738 219.504C110.563 218.886 111.388 218.267 112.11 217.648C112.935 217.029 113.76 216.411 114.585 215.895C115.307 215.379 116.028 214.864 116.853 214.348C125.207 208.367 134.179 202.695 143.46 197.229C180.688 175.676 225.651 158.66 275.151 148.863C276.492 148.657 277.73 148.348 279.07 148.141C330.839 138.345 380.855 137.726 424.787 144.841C429.324 147.213 433.759 149.791 438.193 152.473C448.712 158.97 458.715 166.188 468.1 174.129C476.659 181.348 484.806 189.185 492.334 197.539C515.228 222.908 533.069 253.123 544 286.433Z" fill="#933100" fill-opacity="0.4"/>
</g>
</g>
<mask id="mask4_901_1299" style="mask-type:alpha" maskUnits="userSpaceOnUse" x="64" y="99" width="483" height="484">
<path d="M367.549 574.228C496.264 539.956 572.825 407.828 538.552 279.112C504.279 150.397 372.151 73.8364 243.436 108.109C114.72 142.382 38.1596 274.51 72.4325 403.225C106.705 531.941 238.833 608.501 367.549 574.228Z" fill="url(#paint12_radial_901_1299)"/>
</mask>
<g mask="url(#mask4_901_1299)">
<path d="M557.125 287.971C516.299 256.056 451.846 238.544 378.172 239.995C348.329 240.616 317.035 244.347 285.12 251.496C177.665 275.744 92.4881 332.632 57.8787 395.53C56.428 383.924 55.8062 372.111 56.0135 360.195C56.1171 350.766 56.8424 341.543 57.9823 332.425C60.4692 312.633 65.1321 293.567 71.8675 275.537C76.3232 263.413 81.7115 251.704 87.9288 240.409C91.97 233.156 96.3221 226.109 100.985 219.27C101.71 218.649 102.539 218.027 103.265 217.405C105.648 215.54 108.135 213.675 110.622 211.81C111.451 211.188 112.28 210.566 113.109 209.944C113.938 209.323 114.767 208.701 115.699 208.183C116.425 207.665 117.254 207.147 117.979 206.525C126.683 200.515 136.009 194.816 145.749 189.324C184.504 167.771 231.03 150.984 282.218 141.658C283.565 141.451 284.913 141.14 286.26 140.933C339.832 131.71 391.331 131.918 436.407 139.897C441.07 142.487 445.629 145.181 450.085 148.083C460.861 154.922 471.016 162.59 480.549 170.879C489.253 178.444 497.543 186.733 505.107 195.437C528.526 222.068 546.349 253.465 557.125 287.971Z" fill="url(#paint13_linear_901_1299)"/>
</g>
<path d="M567.385 161.72C551.04 181.618 521.902 189.436 489.11 190.654C481.698 182.431 473.678 174.715 465.252 167.608C456.013 159.791 446.165 152.684 435.809 146.288C431.545 143.648 427.078 141.11 422.611 138.775C379.362 131.77 330.224 132.379 279.157 142.024C277.838 142.227 276.619 142.531 275.299 142.735C226.568 152.379 182.405 169.131 145.653 190.349C136.414 195.73 127.683 201.314 119.46 207.202C118.749 207.71 117.937 208.218 117.226 208.725C116.414 209.334 115.602 209.842 114.79 210.451C113.977 211.06 113.165 211.67 112.455 212.279C110.119 214.106 107.784 215.832 105.551 217.659C104.84 218.269 104.13 218.878 103.317 219.487C98.9518 226.086 94.8908 232.888 91.1344 239.893C85.3475 250.655 80.3728 262.026 76.3119 273.701C70.2204 291.062 66.0579 309.336 63.9259 328.321C49.5095 320.504 38.0372 312.483 29.0015 304.564C-40.7457 242.939 37.225 181.314 37.225 181.314C35.4991 178.065 34.0778 174.918 32.961 171.872C13.4683 117.76 89.51 97.5562 94.9923 96.1348C94.9923 96.1348 94.9923 96.1348 94.9923 96.2364C94.9923 96.2364 94.9923 96.3379 94.9923 96.4394C94.7893 100.196 93.8756 139.587 179.156 110.044C265.655 80.094 262.203 66.1852 261.898 65.2714C261.898 65.2714 443.627 18.5702 454.388 93.0891C454.49 91.8708 454.591 90.6525 454.693 89.5357C453.982 83.2412 452.967 75.1193 451.85 65.8806C449.617 59.0785 446.165 52.7839 441.19 46.8955C439.261 44.662 437.332 42.53 435.302 40.398C468.906 35.2202 534.593 31.4638 544.643 78.8757C570.837 92.1754 602.614 118.775 567.385 161.72Z" fill="url(#paint14_linear_901_1299)"/>
<path d="M145.754 190.45C130.221 199.385 116.008 209.232 103.419 219.588C99.0531 226.187 94.9921 232.989 91.2357 239.994C80.9818 232.888 70.3217 223.75 59.7632 211.974C54.3824 205.984 49.0016 199.181 43.7223 191.669C41.2857 188.115 39.1537 184.664 37.4278 181.313C37.1232 180.603 36.7171 179.993 36.4126 179.283C36.108 178.775 35.905 178.267 35.7019 177.76C34.9912 176.135 34.2806 174.613 33.6714 173.09C33.4684 172.684 33.3668 172.278 33.2653 171.973C31.3364 166.694 30.4226 161.821 30.1181 157.15C27.8845 114.104 90.322 97.4541 95.1952 96.2358C93.6723 106.591 94.8906 118.774 100.982 132.886C104.231 140.399 108.799 148.419 114.992 157.049C124.637 170.45 135.094 181.415 145.754 190.45Z" fill="url(#paint15_linear_901_1299)"/>
<path d="M465.251 167.608C456.013 159.791 446.165 152.684 435.809 146.288C449.414 121.516 456.723 98.1653 454.49 77.7589C453.272 66.3882 449.008 56.0327 441.292 46.794C439.363 44.5604 437.434 42.4284 435.403 40.2964C469.008 35.1187 534.694 31.3623 544.745 78.7741C544.948 79.4848 545.05 80.1955 545.151 81.0077C550.532 112.582 509.922 143.547 465.251 167.608Z" fill="url(#paint16_linear_901_1299)"/>
<path d="M580.482 139.486C578.147 146.389 573.883 153.8 567.385 161.719C551.04 181.618 521.903 189.435 489.11 190.654C481.699 182.43 473.678 174.714 465.252 167.608C496.115 150.958 524.948 131.059 538.146 110.043C544.035 100.602 546.877 90.8554 545.152 81.109C545.05 80.3984 544.847 79.6877 544.745 78.8755C566.066 89.7386 591.041 109.333 580.482 139.486Z" fill="url(#paint17_linear_901_1299)"/>
<path d="M279.258 142.024C277.939 142.227 276.72 142.531 275.401 142.734C226.669 152.379 182.506 169.131 145.754 190.349C135.094 181.415 124.637 170.349 114.992 156.948C97.1239 132.074 92.8598 111.972 95.1949 96.2361C95.1949 96.1346 95.1949 96.1346 95.1949 96.1346C99.9665 64.0529 132.048 49.941 132.048 49.941C132.048 49.941 167.48 32.0727 215.704 17.7578C237.735 31.6666 252.355 48.3166 261.898 65.2712C278.649 94.7132 280.172 124.764 279.258 142.024Z" fill="url(#paint18_linear_901_1299)"/>
<path d="M454.795 89.5355C454.693 90.7538 454.592 91.8706 454.49 93.0889C452.866 109.536 446.165 127.506 435.81 146.288C431.546 143.648 427.079 141.11 422.612 138.775C379.362 131.77 330.225 132.379 279.158 142.024C280.072 124.764 278.549 94.6118 261.899 65.2712C252.355 48.3167 237.736 31.6667 215.705 17.7579C284.945 -2.85158 380.378 -16.2528 435.404 40.3978C437.434 42.4283 439.363 44.5603 441.292 46.8953C446.165 52.7837 449.719 59.0783 451.952 65.8804C454.389 73.1901 455.201 81.2105 454.795 89.5355Z" fill="url(#paint19_linear_901_1299)"/>
<path d="M454.795 89.5355C454.693 90.7538 454.592 91.8706 454.49 93.0889C452.866 109.536 446.165 127.506 435.81 146.288C431.546 143.648 427.079 141.11 422.612 138.775C379.362 131.77 330.225 132.379 279.158 142.024C280.072 124.764 278.549 94.6118 261.899 65.2712C252.355 48.3167 237.736 31.6667 215.705 17.7579C284.945 -2.85158 380.378 -16.2528 435.404 40.3978C437.434 42.4283 439.363 44.5603 441.292 46.8953C446.165 52.7837 449.719 59.0783 451.952 65.8804C454.389 73.1901 455.201 81.2105 454.795 89.5355Z" fill="url(#paint20_linear_901_1299)"/>
<path d="M179.257 110.043C93.977 139.485 94.7892 100.196 95.0938 96.4391C95.0938 96.3376 95.0938 96.3376 95.0938 96.2361C95.0938 96.1346 95.0938 96.1345 95.0938 96.1345C97.1243 82.6318 104.028 72.2763 111.236 64.7635C111.541 64.459 111.744 64.2559 112.048 63.9513C112.556 63.4437 113.165 62.9361 113.673 62.4285C122.911 53.9004 131.947 49.8395 131.947 49.8395C131.947 49.8395 167.379 31.9712 215.603 17.6562C237.634 31.5651 252.253 48.2151 261.797 65.1696C262.304 66.1849 265.858 80.0937 179.257 110.043Z" fill="url(#paint21_linear_901_1299)"/>
<path d="M545.253 81.1092C522.714 59.9922 482.003 68.4187 454.49 77.8605C453.272 66.4897 449.008 56.1342 441.292 46.8955C439.363 44.662 437.434 42.53 435.403 40.398C469.008 35.2202 534.694 31.4638 544.745 78.8757C544.948 79.5864 545.151 80.3986 545.253 81.1092Z" fill="url(#paint22_linear_901_1299)"/>
<path d="M454.795 89.5355C454.693 90.7538 454.592 91.8706 454.49 93.0889C443.729 18.57 262 65.2712 262 65.2712C252.457 48.3167 237.837 31.6667 215.807 17.7579C284.945 -2.85158 380.378 -16.2528 435.404 40.3978C437.434 42.4283 439.363 44.5603 441.292 46.8953C446.165 52.7837 449.719 59.0783 451.952 65.8804C455.426 76.4604 454.795 82.9604 454.795 89.5355Z" fill="url(#paint23_linear_901_1299)"/>
<path d="M91.236 239.995C85.4491 250.756 80.4744 262.127 76.4135 273.802C70.322 291.163 66.1595 309.437 64.0275 328.422C49.611 320.605 38.1388 312.584 29.1031 304.666C16.3111 293.396 8.49369 282.026 4.22966 271.163C-14.6539 222.532 37.3266 181.415 37.3266 181.415C39.0525 184.765 41.1845 188.217 43.6211 191.771C48.9004 199.283 54.2811 205.984 59.6619 212.075C61.5909 214.309 63.6214 216.441 65.6519 218.471C74.2815 227.101 82.911 234.208 91.236 239.995Z" fill="url(#paint24_linear_901_1299)"/>
<path d="M65.7534 218.268C60.6772 230.451 56.7178 243.04 55.601 254.817C51.4385 297.762 4.33123 271.061 4.33123 271.061C-14.5523 222.431 37.4282 181.313 37.4282 181.313C39.1541 184.664 41.2861 188.116 43.7227 191.669C49.0019 199.182 54.3827 205.882 59.7635 211.974C61.6925 214.106 63.7229 216.238 65.7534 218.268Z" fill="url(#paint25_linear_901_1299)"/>
<path d="M145.754 190.45C130.221 199.385 116.008 209.232 103.419 219.588C99.0531 226.187 94.9921 232.989 91.2357 239.994C80.9818 232.888 70.3217 223.75 59.7632 211.974C54.3824 205.984 49.0016 199.181 43.7223 191.669C41.2857 188.115 39.1537 184.664 37.4278 181.313C37.1232 180.603 36.7171 179.993 36.4126 179.283C36.108 178.775 35.905 178.267 35.7019 177.76C34.9912 176.135 34.2806 174.613 33.6714 173.09C33.4684 172.684 33.3668 172.278 33.2653 171.973C31.3364 166.694 30.4226 161.821 30.1181 157.15C27.8845 114.104 90.322 97.4541 95.1952 96.2358C93.6723 106.591 94.8906 118.774 100.982 132.886C104.231 140.399 108.799 148.419 114.992 157.049C124.637 170.45 135.094 181.415 145.754 190.45Z" fill="url(#paint26_linear_901_1299)"/>
<path d="M580.482 139.486C578.147 146.389 573.883 153.8 567.385 161.719C551.04 181.618 521.903 189.435 489.11 190.654C481.699 182.43 473.678 174.714 465.252 167.608C496.115 150.958 524.948 131.059 538.146 110.043C544.035 100.602 546.877 90.8554 545.152 81.109C545.05 80.3984 544.847 79.6877 544.745 78.8755C566.066 89.7386 591.041 109.333 580.482 139.486Z" fill="url(#paint27_linear_901_1299)"/>
<path d="M580.482 139.486C559.873 170.45 538.146 110.043 538.146 110.043C544.035 100.602 546.878 90.8554 545.152 81.109C545.05 80.3984 544.847 79.6877 544.746 78.8755C566.066 89.7386 591.041 109.333 580.482 139.486Z" fill="url(#paint28_linear_901_1299)"/>
<path d="M100.982 132.785C38.9507 186.491 30.7272 160.095 30.0165 157.049C27.783 114.003 90.2204 97.3531 95.0936 96.1348C93.6723 106.49 94.8906 118.673 100.982 132.785Z" fill="url(#paint29_linear_901_1299)"/>
<mask id="mask5_901_1299" style="mask-type:alpha" maskUnits="userSpaceOnUse" x="64" y="99" width="483" height="484">
<path d="M367.549 574.228C496.264 539.956 572.825 407.828 538.552 279.112C504.279 150.397 372.151 73.8364 243.436 108.109C114.72 142.382 38.1596 274.51 72.4325 403.225C106.705 531.941 238.833 608.501 367.549 574.228Z" fill="url(#paint30_radial_901_1299)"/>
</mask>
<g mask="url(#mask5_901_1299)">
<path d="M544 278.433C503.884 248.114 441.081 232.026 369.615 234.708C340.636 235.739 310.317 239.864 279.483 247.392C175.635 272.555 93.9596 329.068 61.3719 390.634C59.825 379.393 59 367.946 59 356.396C59 347.321 59.5156 338.246 60.4438 329.377C62.5063 310.196 66.7344 291.633 73.0251 273.895C77.1501 262.036 82.2033 250.589 88.0814 239.555C91.8971 232.439 96.0221 225.529 100.457 218.826C101.178 218.208 101.9 217.589 102.725 216.97C104.994 215.114 107.366 213.258 109.738 211.504C110.563 210.886 111.388 210.267 112.11 209.648C112.935 209.029 113.76 208.411 114.585 207.895C115.307 207.379 116.028 206.864 116.853 206.348C125.207 200.367 134.179 194.695 143.46 189.229C180.688 167.676 225.651 150.66 275.151 140.863C276.492 140.657 277.73 140.348 279.07 140.141C330.839 130.344 380.855 129.726 424.787 136.841C429.324 139.213 433.759 141.791 438.193 144.473C448.712 150.97 458.715 158.188 468.1 166.129C476.659 173.348 484.806 181.185 492.334 189.539C515.228 214.908 533.069 245.123 544 278.433Z" fill="url(#paint31_linear_901_1299)"/>
</g>
<mask id="mask6_901_1299" style="mask-type:alpha" maskUnits="userSpaceOnUse" x="64" y="99" width="483" height="484">
<path d="M367.549 574.229C496.264 539.956 572.825 407.828 538.552 279.112C504.279 150.397 372.151 73.8366 243.436 108.109C114.72 142.382 38.1596 274.51 72.4325 403.226C106.705 531.941 238.833 608.502 367.549 574.229Z" fill="url(#paint32_radial_901_1299)"/>
</mask>
<g mask="url(#mask6_901_1299)">
<mask id="mask7_901_1299" style="mask-type:alpha" maskUnits="userSpaceOnUse" x="59" y="132" width="485" height="259">
<path d="M544 278.433C503.884 248.114 441.081 232.027 369.615 234.708C340.636 235.739 310.317 239.864 279.483 247.392C175.635 272.555 93.9596 329.068 61.3719 390.634C59.825 379.393 59 367.946 59 356.396C59 347.321 59.5156 338.246 60.4438 329.377C62.5063 310.196 66.7344 291.633 73.0251 273.896C77.1501 262.036 82.2033 250.589 88.0814 239.555C91.8971 232.439 96.0221 225.53 100.457 218.827C101.178 218.208 101.9 217.589 102.725 216.97C104.994 215.114 107.366 213.258 109.738 211.505C110.563 210.886 111.388 210.267 112.11 209.648C112.935 209.03 113.76 208.411 114.585 207.895C115.307 207.38 116.028 206.864 116.853 206.348C125.207 200.367 134.179 194.695 143.46 189.23C180.688 167.676 225.651 150.661 275.151 140.864C276.492 140.657 277.73 140.348 279.07 140.142C330.839 130.345 380.855 129.726 424.787 136.842C429.324 139.214 433.759 141.792 438.193 144.473C448.712 150.97 458.715 158.189 468.1 166.129C476.659 173.348 484.806 181.186 492.334 189.539C515.228 214.908 533.069 245.124 544 278.433Z" fill="url(#paint33_linear_901_1299)"/>
</mask>
<g mask="url(#mask7_901_1299)">
<g filter="url(#filter13_f_901_1299)">
<path d="M59 356.396C59 347.321 59.5156 338.246 60.4438 329.377C62.5063 310.196 66.7344 291.633 73.0251 273.896C77.1501 262.036 82.2033 250.589 88.0814 239.555C91.8971 232.439 96.0221 225.53 100.457 218.827C101.178 218.208 101.9 217.589 102.725 216.97C104.994 215.114 107.366 213.258 109.738 211.505C110.563 210.886 111.388 210.267 112.11 209.648C112.935 209.03 113.76 208.411 114.585 207.895C115.307 207.38 116.028 206.864 116.853 206.348C125.207 200.367 134.179 194.695 143.46 189.23C180.688 167.676 225.651 150.661 275.151 140.864C276.492 140.657 277.73 140.348 279.07 140.142C330.839 130.345 380.855 129.726 424.787 136.842C429.324 139.214 433.759 141.792 438.193 144.473C448.712 150.97 458.715 158.189 468.1 166.129C476.659 173.348 484.806 181.186 492.334 189.539" stroke="#808080" stroke-width="8"/>
</g>
</g>
</g>
<g opacity="0.5">
<mask id="mask8_901_1299" style="mask-type:alpha" maskUnits="userSpaceOnUse" x="64" y="99" width="483" height="484">
<path d="M367.549 574.228C496.264 539.956 572.825 407.828 538.552 279.112C504.279 150.397 372.151 73.8364 243.436 108.109C114.72 142.382 38.1596 274.51 72.4325 403.225C106.705 531.941 238.833 608.501 367.549 574.228Z" fill="url(#paint34_radial_901_1299)"/>
</mask>
<g mask="url(#mask8_901_1299)">
<g filter="url(#filter14_f_901_1299)">
<path d="M617.9 473.76L546.2 417.46C541.8 414.06 536.1 413.36 531.3 415.16C530.4 414.76 529.4 414.56 528.4 414.36C526.2 413.96 524 414.16 521.9 414.66C519.7 415.26 517.5 415.86 515.3 416.46C513.1 417.16 510.8 417.86 508.6 418.56C506.4 419.26 504.1 420.06 501.9 420.86C499.7 421.66 497.4 422.56 495.3 423.46C493.1 424.36 490.9 425.36 488.7 426.26C486.5 427.26 484.4 428.26 482.3 429.36C480.2 430.46 478.1 431.56 476.1 432.66C474.1 433.76 472.1 434.96 470.1 436.16C468.2 437.36 466.3 438.66 464.4 439.96C452.7 448.16 436 462.16 442.6 478.06C443.9 481.26 445.7 483.36 447.8 484.66C446.2 485.26 444.7 486.16 443.3 487.26C435.6 493.36 434.3 504.46 440.3 512.26L505.4 594.96C505.4 594.96 525.6 628.56 574 621.26C625.4 613.56 628.1 562.16 632.2 535.56L635.1 518.06C637.9 501.26 631.3 484.26 617.9 473.76ZM538.9 533.26C538.5 542.56 516.2 551.26 497.8 527.86C497.8 527.86 497.8 527.86 497.7 527.76L468.2 490.26C466.5 488.16 464.5 486.56 462.2 485.36C466.4 484.16 470.5 482.26 474 480.76C486.7 475.16 499 473.06 510.7 482.26C534.4 500.76 539.3 523.96 538.9 533.26Z" fill="#B04B02"/>
</g>
</g>
</g>
<path d="M617.9 460.76L546.2 404.46C541.8 401.06 536.1 400.36 531.3 402.16C530.4 401.76 529.4 401.56 528.4 401.36C526.2 400.96 524 401.16 521.9 401.66C519.7 402.26 517.5 402.86 515.3 403.46C513.1 404.16 510.8 404.86 508.6 405.56C506.4 406.26 504.1 407.06 501.9 407.86C499.7 408.66 497.4 409.56 495.3 410.46C493.1 411.36 490.9 412.36 488.7 413.26C486.5 414.26 484.4 415.26 482.3 416.36C480.2 417.46 478.1 418.56 476.1 419.66C474.1 420.76 472.1 421.96 470.1 423.16C468.2 424.36 466.3 425.66 464.4 426.96C452.7 435.16 436 449.16 442.6 465.06C443.9 468.26 445.7 470.36 447.8 471.66C446.2 472.26 444.7 473.16 443.3 474.26C435.6 480.36 434.3 491.46 440.3 499.26L505.4 581.96C505.4 581.96 525.6 615.56 574 608.26C625.4 600.56 628.1 549.16 632.2 522.56L635.1 505.06C637.9 488.26 631.3 471.26 617.9 460.76ZM538.9 520.26C538.5 529.56 516.2 538.26 497.8 514.86C497.8 514.86 497.8 514.86 497.7 514.76L468.2 477.26C466.5 475.16 464.5 473.56 462.2 472.36C466.4 471.16 470.5 469.26 474 467.76C486.7 462.16 499 460.06 510.7 469.26C534.4 487.76 539.3 510.96 538.9 520.26Z" fill="url(#paint35_radial_901_1299)"/>
<path d="M617.9 460.76L546.2 404.46C541.8 401.06 536.1 400.36 531.3 402.16C530.4 401.76 529.4 401.56 528.4 401.36C526.2 400.96 524 401.16 521.9 401.66C519.7 402.26 517.5 402.86 515.3 403.46C513.1 404.16 510.8 404.86 508.6 405.56C506.4 406.26 504.1 407.06 501.9 407.86C499.7 408.66 497.4 409.56 495.3 410.46C493.1 411.36 490.9 412.36 488.7 413.26C486.5 414.26 484.4 415.26 482.3 416.36C480.2 417.46 478.1 418.56 476.1 419.66C474.1 420.76 472.1 421.96 470.1 423.16C468.2 424.36 466.3 425.66 464.4 426.96C452.7 435.16 436 449.16 442.6 465.06C443.9 468.26 445.7 470.36 447.8 471.66C446.2 472.26 444.7 473.16 443.3 474.26C435.6 480.36 434.3 491.46 440.3 499.26L505.4 581.96C505.4 581.96 525.6 615.56 574 608.26C625.4 600.56 628.1 549.16 632.2 522.56L635.1 505.06C637.9 488.26 631.3 471.26 617.9 460.76ZM538.9 520.26C538.5 529.56 516.2 538.26 497.8 514.86C497.8 514.86 497.8 514.86 497.7 514.76L468.2 477.26C466.5 475.16 464.5 473.56 462.2 472.36C466.4 471.16 470.5 469.26 474 467.76C486.7 462.16 499 460.06 510.7 469.26C534.4 487.76 539.3 510.96 538.9 520.26Z" fill="url(#paint36_linear_901_1299)"/>
<path d="M533.4 559.96L505.5 581.96L440.3 499.26C434.2 491.56 435.5 480.36 443.3 474.26C444.2 473.56 445.2 472.96 446.2 472.46C446.3 472.36 446.4 472.36 446.6 472.26C446.8 472.16 447 472.06 447.1 471.96C447.3 471.86 447.6 471.76 447.9 471.66C450 470.86 452.2 470.46 454.3 470.46C454.4 470.46 454.5 470.46 454.6 470.46C457.8 470.46 460.9 471.46 463.7 473.16C464.2 473.46 464.7 473.86 465.2 474.26C466.3 475.16 467.3 476.16 468.2 477.26L533.4 559.96Z" fill="url(#paint37_linear_901_1299)"/>
<mask id="mask9_901_1299" style="mask-type:alpha" maskUnits="userSpaceOnUse" x="436" y="470" width="98" height="112">
<path d="M533.4 559.96L505.5 581.96L440.3 499.26C434.2 491.56 435.5 480.36 443.3 474.26C444.2 473.56 445.2 472.96 446.2 472.46C446.3 472.36 446.4 472.36 446.6 472.26C446.8 472.16 447 472.06 447.1 471.96C447.3 471.86 447.6 471.76 447.9 471.66C450 470.86 452.2 470.46 454.3 470.46C454.4 470.46 454.5 470.46 454.6 470.46C457.8 470.46 460.9 471.46 463.7 473.16C464.2 473.46 464.7 473.86 465.2 474.26C466.3 475.16 467.3 476.16 468.2 477.26L533.4 559.96Z" fill="white"/>
</mask>
<g mask="url(#mask9_901_1299)">
<g style="mix-blend-mode:color-burn" filter="url(#filter15_f_901_1299)">
<path d="M505.4 581.961C498.1 573.161 490.9 564.361 483.6 555.461C476.4 546.561 469.2 537.761 462.1 528.761L440.7 502.161L439.4 500.461C439 499.861 438.5 499.261 438.1 498.661C437.3 497.361 436.6 495.961 436.1 494.461C435.1 491.561 434.8 488.361 435.3 485.361C435.8 482.261 437 479.361 438.8 476.861C440.7 474.361 443 472.361 445.9 470.961L445.8 471.061C446.1 470.961 446.3 470.761 446.6 470.661L447.3 470.361L447.8 470.261C447.6 470.261 447.3 470.361 447.1 470.461C446.9 470.561 446.8 470.761 446.8 470.761C446.8 470.761 446.9 470.661 447.1 470.461C447.3 470.361 447.6 470.261 447.8 470.261L447.3 470.361C448.5 469.861 449.7 469.561 450.9 469.361C451.5 469.261 452.1 469.161 452.8 469.161C453.1 469.161 453.4 469.161 453.7 469.061C454 469.061 454.3 469.061 454.8 469.061H454.7C458.2 469.161 461.6 470.161 464.5 471.961L463.7 471.761H464L464.4 471.961C465 472.261 465.6 472.761 466.1 473.161C466.6 473.561 467.2 474.061 467.6 474.461C468.1 474.961 468.6 475.461 469 475.961L470.2 477.461L474.9 483.561C478 487.561 481.1 491.661 484.2 495.761C487.3 499.861 490.3 503.961 493.3 508.061C496.3 512.161 499.3 516.261 502.2 520.461C498.8 516.661 495.5 512.761 492.2 508.861C488.9 504.961 485.6 501.061 482.4 497.161C479.2 493.261 475.9 489.261 472.7 485.261L467.9 479.361L466.7 477.861C466.3 477.461 465.9 476.961 465.5 476.561C465.1 476.161 464.7 475.761 464.2 475.361C463.7 474.961 463.3 474.661 462.8 474.361L463.6 474.561H463.2L462.8 474.361C460.3 472.861 457.4 471.961 454.5 471.961H454.4H453.7C453.4 471.961 453.2 471.961 452.9 471.961C452.4 471.961 451.8 472.061 451.3 472.161C450.3 472.361 449.2 472.661 448.3 473.061L447.8 473.161C448 473.161 448.3 473.061 448.5 472.961C448.7 472.861 448.8 472.661 448.8 472.661C448.8 472.661 448.7 472.761 448.5 472.961C448.3 473.061 448 473.161 447.8 473.161L448.3 473.061L447.7 473.261C447.5 473.361 447.4 473.461 447.2 473.461L447.1 473.561C444.8 474.661 442.7 476.461 441.1 478.561C439.5 480.661 438.5 483.161 438.1 485.761C437.7 488.361 437.9 491.061 438.8 493.561C439.2 494.761 439.8 495.961 440.5 497.061C440.9 497.661 441.2 498.161 441.7 498.661L443 500.361L464 527.461C471 536.461 477.9 545.561 484.9 554.661C491.7 563.761 498.6 572.761 505.4 581.961Z" fill="#720000"/>
</g>
</g>
<mask id="mask10_901_1299" style="mask-type:alpha" maskUnits="userSpaceOnUse" x="447" y="428" width="149" height="96">
<path d="M595 505.26C595.8 530.26 539 522.56 539 522.56L538.6 522.06C538.8 521.46 538.9 520.86 539 520.16C539.4 510.86 534.5 487.76 510.8 469.16C499.1 460.06 486.8 462.06 474.1 467.66C470.7 469.16 466.5 471.06 462.3 472.26C462.8 472.46 463.3 472.76 463.7 473.06L461.2 472.66C456.3 472.16 451.8 469.26 449.3 464.66C448.1 462.36 447.5 459.96 447.5 457.46C447.5 452.36 450 447.46 454.5 444.56C454.9 444.36 455.2 444.16 455.6 443.96L477.2 432.46C478.8 431.56 480.6 430.86 482.4 430.46C484.2 429.96 486 429.76 487.9 429.66L515.5 428.96C520.9 428.86 526.1 430.46 530.4 433.56L534.6 436.56L564.2 458.16L579.5 469.26C579.5 469.36 594.1 480.26 595 505.26Z" fill="white"/>
</mask>
<g mask="url(#mask10_901_1299)">
<g style="mix-blend-mode:color-burn" filter="url(#filter16_f_901_1299)">
<path d="M461.2 472.76C459.3 472.66 457.5 472.16 455.8 471.36C454.1 470.56 452.5 469.46 451.2 468.06C448.5 465.26 446.9 461.56 446.8 457.56C446.7 453.66 448.1 449.66 450.7 446.66C452 445.16 453.6 443.86 455.3 442.96L460.2 440.26L470 434.86L474.9 432.16C476.5 431.26 478.3 430.26 480.1 429.66C482 428.96 483.9 428.56 485.9 428.36C487.9 428.16 489.7 428.16 491.6 428.06L502.8 427.76L514 427.46C514.9 427.46 515.9 427.36 516.9 427.46C517.9 427.46 518.9 427.56 519.9 427.66C521.9 427.96 523.8 428.46 525.6 429.16C527.4 429.86 529.2 430.86 530.8 431.96C532.4 433.06 533.8 434.16 535.3 435.36L544.2 442.06C556.1 451.06 567.9 460.16 579.6 469.36C573.4 465.26 567.3 460.96 561.1 456.76C555 452.46 548.9 448.26 542.8 443.96L533.7 437.46C532.2 436.36 530.6 435.26 529.2 434.26C527.7 433.26 526.2 432.46 524.5 431.86C522.9 431.26 521.1 430.86 519.4 430.56C518.5 430.46 517.7 430.36 516.8 430.36C515.9 430.36 515 430.36 514.1 430.46L502.9 430.76L491.7 431.06C489.8 431.16 487.9 431.06 486.2 431.26C484.5 431.46 482.7 431.86 481.1 432.36C479.4 432.86 477.9 433.76 476.2 434.56L471.2 437.16L461.3 442.26L456.3 444.76C454.7 445.56 453.3 446.56 452.1 447.86C449.7 450.36 448.3 453.86 448.2 457.46C448.1 460.96 449.4 464.66 451.7 467.36C454 470.36 457.5 472.26 461.2 472.76Z" fill="#AF2A10"/>
</g>
</g>
<g opacity="0.4">
<mask id="mask11_901_1299" style="mask-type:alpha" maskUnits="userSpaceOnUse" x="447" y="428" width="149" height="96">
<path d="M595 505.26C595.8 530.26 539 522.56 539 522.56L538.6 522.06C538.8 521.46 538.9 520.86 539 520.16C539.4 510.86 534.5 487.76 510.8 469.16C499.1 460.06 486.8 462.06 474.1 467.66C470.7 469.16 466.5 471.06 462.3 472.26C462.8 472.46 463.3 472.76 463.7 473.06L461.2 472.66C456.3 472.16 451.8 469.26 449.3 464.66C448.1 462.36 447.5 459.96 447.5 457.46C447.5 452.36 450 447.46 454.5 444.56C454.9 444.36 455.2 444.16 455.6 443.96L477.2 432.46C478.8 431.56 480.6 430.86 482.4 430.46C484.2 429.96 486 429.76 487.9 429.66L515.5 428.96C520.9 428.86 526.1 430.46 530.4 433.56L534.6 436.56L564.2 458.16L579.5 469.26C579.5 469.36 594.1 480.26 595 505.26Z" fill="white"/>
</mask>
<g mask="url(#mask11_901_1299)">
<g style="mix-blend-mode:color-burn" filter="url(#filter17_f_901_1299)">
<path d="M461.2 472.76C459.3 472.66 457.5 472.16 455.8 471.36C454.1 470.56 452.5 469.46 451.2 468.06C448.5 465.26 446.9 461.56 446.8 457.56C446.7 453.66 448.1 449.66 450.7 446.66C452 445.16 453.6 443.86 455.3 442.96L460.2 440.26L470 434.86L474.9 432.16C476.5 431.26 478.3 430.26 480.1 429.66C482 428.96 483.9 428.56 485.9 428.36C487.9 428.16 489.7 428.16 491.6 428.06L502.8 427.76L514 427.46C514.9 427.46 515.9 427.36 516.9 427.46C517.9 427.46 518.9 427.56 519.9 427.66C521.9 427.96 523.8 428.46 525.6 429.16C527.4 429.86 529.2 430.86 530.8 431.96C532.4 433.06 533.8 434.16 535.3 435.36L544.2 442.06C556.1 451.06 567.9 460.16 579.6 469.36C573.4 465.26 567.3 460.96 561.1 456.76C555 452.46 548.9 448.26 542.8 443.96L533.7 437.46C532.2 436.36 530.6 435.26 529.2 434.26C527.7 433.26 526.2 432.46 524.5 431.86C522.9 431.26 521.1 430.86 519.4 430.56C518.5 430.46 517.7 430.36 516.8 430.36C515.9 430.36 515 430.36 514.1 430.46L502.9 430.76L491.7 431.06C489.8 431.16 487.9 431.06 486.2 431.26C484.5 431.46 482.7 431.86 481.1 432.36C479.4 432.86 477.9 433.76 476.2 434.56L471.2 437.16L461.3 442.26L456.3 444.76C454.7 445.56 453.3 446.56 452.1 447.86C449.7 450.36 448.3 453.86 448.2 457.46C448.1 460.96 449.4 464.66 451.7 467.36C454 470.36 457.5 472.26 461.2 472.76Z" fill="#AF2A10"/>
</g>
</g>
</g>
<mask id="mask12_901_1299" style="mask-type:alpha" maskUnits="userSpaceOnUse" x="441" y="401" width="188" height="129">
<path d="M625.9 516.66C620.3 536.06 593.7 529.86 574.4 522.46C585.7 520.46 595.3 515.66 595 505.36C594.2 480.36 579.5 469.46 579.5 469.46L564.2 458.36L534.6 436.66L530.4 433.66C526.1 430.56 520.8 428.86 515.5 429.06L487.8 429.86C485.9 429.86 484.1 430.16 482.3 430.66C480.5 431.16 478.8 431.86 477.1 432.66L455.6 444.06C455.2 444.26 454.9 444.46 454.5 444.66C450 447.56 447.5 452.46 447.5 457.56C447.5 459.96 448.1 462.46 449.3 464.76C450.6 467.16 452.4 469.16 454.6 470.46C454.5 470.46 454.4 470.46 454.3 470.46C452.1 470.46 449.9 470.86 447.9 471.66C445.8 470.36 444 468.26 442.7 465.06C436 449.16 452.7 435.16 464.2 427.16C466.1 425.86 468 424.66 469.9 423.36C471.9 422.16 473.9 420.96 475.9 419.76C478 418.66 480 417.56 482.1 416.46C484.2 415.36 486.4 414.36 488.5 413.36C490.7 412.36 492.9 411.46 495.1 410.56C497.3 409.66 499.5 408.76 501.8 407.96C504 407.16 506.2 406.36 508.5 405.66C510.7 404.96 512.9 404.26 515.2 403.56C517.4 402.96 519.6 402.36 521.8 401.76C523.9 401.16 526.1 401.06 528.3 401.46L531.2 402.26C532.3 402.66 533.4 403.26 534.4 403.96C534.7 404.16 534.9 404.36 535.2 404.56L620 471.06C620.1 471.06 635 485.46 625.9 516.66Z" fill="white"/>
</mask>
<g mask="url(#mask12_901_1299)">
<g style="mix-blend-mode:color-burn" filter="url(#filter18_f_901_1299)">
<path d="M442.6 465.06C441.6 462.86 441 460.36 440.9 457.96C440.8 455.46 441.3 452.96 442 450.66C443.6 445.96 446.6 441.86 449.9 438.16C456.6 430.86 464.8 425.26 473.2 420.16C481.6 415.06 490.6 410.96 499.7 407.36C504.3 405.56 508.9 404.06 513.6 402.56C515.9 401.86 518.3 401.26 520.7 400.56C523.1 399.86 525.9 399.56 528.6 399.96H528.7H528.8L531.7 400.76H531.8H531.9C533.1 401.26 534.3 401.86 535.3 402.56C536.4 403.36 537.2 404.06 538.2 404.76L543.7 409.06L554.7 417.76L576.7 435.26C584 441.16 591.3 447.06 598.5 452.96C605.7 458.96 613 464.86 620.2 470.86C612.6 465.36 605.2 459.66 597.6 454.06C590.1 448.46 582.7 442.76 575.2 437.06L552.9 419.96L541.8 411.36L536.3 407.06C535.4 406.36 534.4 405.56 533.6 404.96C532.7 404.36 531.8 403.86 530.8 403.46H530.9L528 402.96H528.1C525.9 402.56 523.7 402.76 521.5 403.46C519.2 404.16 516.8 404.66 514.5 405.36C509.9 406.76 505.3 408.26 500.7 409.96C491.6 413.36 482.8 417.36 474.3 422.16C466 426.96 457.8 432.36 451 439.16C447.6 442.56 444.6 446.46 442.8 450.96C441.9 453.16 441.4 455.56 441.4 457.96C441.3 460.36 441.7 462.76 442.6 465.06Z" fill="#AF2A10"/>
</g>
</g>
<g opacity="0.3">
<mask id="mask13_901_1299" style="mask-type:alpha" maskUnits="userSpaceOnUse" x="441" y="401" width="188" height="129">
<path d="M625.9 516.66C620.3 536.06 593.7 529.86 574.4 522.46C585.7 520.46 595.3 515.66 595 505.36C594.2 480.36 579.5 469.46 579.5 469.46L564.2 458.36L534.6 436.66L530.4 433.66C526.1 430.56 520.8 428.86 515.5 429.06L487.8 429.86C485.9 429.86 484.1 430.16 482.3 430.66C480.5 431.16 478.8 431.86 477.1 432.66L455.6 444.06C455.2 444.26 454.9 444.46 454.5 444.66C450 447.56 447.5 452.46 447.5 457.56C447.5 459.96 448.1 462.46 449.3 464.76C450.6 467.16 452.4 469.16 454.6 470.46C454.5 470.46 454.4 470.46 454.3 470.46C452.1 470.46 449.9 470.86 447.9 471.66C445.8 470.36 444 468.26 442.7 465.06C436 449.16 452.7 435.16 464.2 427.16C466.1 425.86 468 424.66 469.9 423.36C471.9 422.16 473.9 420.96 475.9 419.76C478 418.66 480 417.56 482.1 416.46C484.2 415.36 486.4 414.36 488.5 413.36C490.7 412.36 492.9 411.46 495.1 410.56C497.3 409.66 499.5 408.76 501.8 407.96C504 407.16 506.2 406.36 508.5 405.66C510.7 404.96 512.9 404.26 515.2 403.56C517.4 402.96 519.6 402.36 521.8 401.76C523.9 401.16 526.1 401.06 528.3 401.46L531.2 402.26C532.3 402.66 533.4 403.26 534.4 403.96C534.7 404.16 534.9 404.36 535.2 404.56L620 471.06C620.1 471.06 635 485.46 625.9 516.66Z" fill="white"/>
</mask>
<g mask="url(#mask13_901_1299)">
<g style="mix-blend-mode:color-burn" filter="url(#filter19_f_901_1299)">
<path d="M442.6 465.06C441.6 462.86 441 460.36 440.9 457.96C440.8 455.46 441.3 452.96 442 450.66C443.6 445.96 446.6 441.86 449.9 438.16C456.6 430.86 464.8 425.26 473.2 420.16C481.6 415.06 490.6 410.96 499.7 407.36C504.3 405.56 508.9 404.06 513.6 402.56C515.9 401.86 518.3 401.26 520.7 400.56C523.1 399.86 525.9 399.56 528.6 399.96H528.7H528.8L531.7 400.76H531.8H531.9C533.1 401.26 534.3 401.86 535.3 402.56C536.4 403.36 537.2 404.06 538.2 404.76L543.7 409.06L554.7 417.76L576.7 435.26C584 441.16 591.3 447.06 598.5 452.96C605.7 458.96 613 464.86 620.2 470.86C612.6 465.36 605.2 459.66 597.6 454.06C590.1 448.46 582.7 442.76 575.2 437.06L552.9 419.96L541.8 411.36L536.3 407.06C535.4 406.36 534.4 405.56 533.6 404.96C532.7 404.36 531.8 403.86 530.8 403.46H530.9L528 402.96H528.1C525.9 402.56 523.7 402.76 521.5 403.46C519.2 404.16 516.8 404.66 514.5 405.36C509.9 406.76 505.3 408.26 500.7 409.96C491.6 413.36 482.8 417.36 474.3 422.16C466 426.96 457.8 432.36 451 439.16C447.6 442.56 444.6 446.46 442.8 450.96C441.9 453.16 441.4 455.56 441.4 457.96C441.3 460.36 441.7 462.76 442.6 465.06Z" fill="#AF2A10"/>
</g>
</g>
</g>
<mask id="mask14_901_1299" style="mask-type:alpha" maskUnits="userSpaceOnUse" x="436" y="401" width="200" height="209">
<path d="M617.9 460.76L546.2 404.46C541.8 401.06 536.1 400.36 531.3 402.16C530.4 401.76 529.4 401.56 528.4 401.36C526.2 400.96 524 401.16 521.9 401.66C519.7 402.26 517.5 402.86 515.3 403.46C513.1 404.16 510.8 404.86 508.6 405.56C506.4 406.26 504.1 407.06 501.9 407.86C499.7 408.66 497.4 409.56 495.3 410.46C493.1 411.36 490.9 412.36 488.7 413.26C486.5 414.26 484.4 415.26 482.3 416.36C480.2 417.46 478.1 418.56 476.1 419.66C474.1 420.76 472.1 421.96 470.1 423.16C468.2 424.36 466.3 425.66 464.4 426.96C452.7 435.16 436 449.16 442.6 465.06C443.9 468.26 445.7 470.36 447.8 471.66C446.2 472.26 444.7 473.16 443.3 474.26C435.6 480.36 434.3 491.46 440.3 499.26L505.4 581.96C505.4 581.96 525.6 615.56 574 608.26C625.4 600.56 628.1 549.16 632.2 522.56L635.1 505.06C637.9 488.26 631.3 471.26 617.9 460.76ZM538.9 520.26C538.5 529.56 516.2 538.26 497.8 514.86C497.8 514.86 497.8 514.86 497.7 514.76L468.2 477.26C466.5 475.16 464.5 473.56 462.2 472.36C466.4 471.16 470.5 469.26 474 467.76C486.7 462.16 499 460.06 510.7 469.26C534.4 487.76 539.3 510.96 538.9 520.26Z" fill="white"/>
</mask>
<g mask="url(#mask14_901_1299)">
<g style="mix-blend-mode:color-burn" filter="url(#filter20_f_901_1299)">
<path d="M574.1 608.361L578.5 607.361C579.9 606.961 581.4 606.561 582.8 606.161C584.2 605.661 585.6 605.161 587 604.661C588.4 604.061 589.7 603.461 591.1 602.861C596.5 600.261 601.4 596.861 605.6 592.761C609.9 588.661 613.3 583.861 616.2 578.761C619.1 573.661 621.2 568.061 623 562.461C624.7 556.761 626 550.961 627 545.161C628 539.261 628.8 533.361 629.6 527.461C630 524.461 630.4 521.461 630.9 518.561L632.3 509.661L633 505.261C633.1 504.461 633.2 503.861 633.3 503.061C633.4 502.361 633.5 501.661 633.5 500.961C633.8 498.061 633.6 495.261 633.3 492.361C633 489.461 632.3 486.661 631.5 483.961C630.6 481.261 629.5 478.561 628.1 476.061C626.7 473.561 625.1 471.161 623.3 468.961C621.4 466.761 619.5 464.661 617.2 462.861L589.2 440.361C579.8 432.861 570.5 425.261 561.3 417.661L547.4 406.161L545.7 404.761C545.1 404.261 544.5 403.861 543.9 403.461C542.7 402.661 541.3 402.161 539.9 401.761C537.1 400.961 534 401.161 531.1 402.061C533.9 400.961 537 400.561 540 401.161C541.5 401.461 543 401.961 544.3 402.661C545 403.061 545.6 403.461 546.3 403.861L548.1 405.161L562.5 415.861C572.1 423.061 581.6 430.261 591.2 437.561C596 441.161 600.7 444.861 605.5 448.461C610.3 452.161 615 455.761 619.7 459.461C629.4 467.261 635.9 479.061 637.3 491.461C637.6 494.561 637.7 497.661 637.4 500.861C637.4 501.661 637.2 502.461 637.1 503.161C637 503.961 636.9 504.761 636.8 505.461L636.1 509.861C635.1 515.761 634.1 521.661 633.2 527.561C631.5 539.361 629.7 551.461 625.8 562.961C623.8 568.661 621.5 574.361 618.3 579.561C615.1 584.761 611.4 589.661 606.8 593.661C602.2 597.661 597 600.961 591.4 603.261C585.9 606.261 580 607.661 574.1 608.361Z" fill="#AF2A10"/>
</g>
</g>
<mask id="mask15_901_1299" style="mask-type:alpha" maskUnits="userSpaceOnUse" x="436" y="401" width="200" height="209">
<path d="M617.9 460.76L546.2 404.46C541.8 401.06 536.1 400.36 531.3 402.16C530.4 401.76 529.4 401.56 528.4 401.36C526.2 400.96 524 401.16 521.9 401.66C519.7 402.26 517.5 402.86 515.3 403.46C513.1 404.16 510.8 404.86 508.6 405.56C506.4 406.26 504.1 407.06 501.9 407.86C499.7 408.66 497.4 409.56 495.3 410.46C493.1 411.36 490.9 412.36 488.7 413.26C486.5 414.26 484.4 415.26 482.3 416.36C480.2 417.46 478.1 418.56 476.1 419.66C474.1 420.76 472.1 421.96 470.1 423.16C468.2 424.36 466.3 425.66 464.4 426.96C452.7 435.16 436 449.16 442.6 465.06C443.9 468.26 445.7 470.36 447.8 471.66C446.2 472.26 444.7 473.16 443.3 474.26C435.6 480.36 434.3 491.46 440.3 499.26L505.4 581.96C505.4 581.96 525.6 615.56 574 608.26C625.4 600.56 628.1 549.16 632.2 522.56L635.1 505.06C637.9 488.26 631.3 471.26 617.9 460.76ZM538.9 520.26C538.5 529.56 516.2 538.26 497.8 514.86C497.8 514.86 497.8 514.86 497.7 514.76L468.2 477.26C466.5 475.16 464.5 473.56 462.2 472.36C466.4 471.16 470.5 469.26 474 467.76C486.7 462.16 499 460.06 510.7 469.26C534.4 487.76 539.3 510.96 538.9 520.26Z" fill="white"/>
</mask>
<g mask="url(#mask15_901_1299)">
<g style="mix-blend-mode:color-burn" filter="url(#filter21_f_901_1299)">
<path d="M510.699 469.26C514.399 471.96 517.999 474.96 521.199 478.36L522.399 479.56C522.799 479.96 523.199 480.46 523.599 480.86C524.399 481.76 525.199 482.56 525.899 483.46C527.299 485.36 528.799 487.16 529.999 489.16C535.099 496.96 538.899 505.86 540.099 515.26C540.199 515.86 540.199 516.46 540.299 517.06C540.299 517.66 540.399 518.26 540.399 518.86V519.76V520.26C540.399 520.46 540.399 520.66 540.399 520.76C540.399 521.16 540.299 521.46 540.199 521.76C540.099 522.06 539.999 522.46 539.899 522.76C538.899 525.36 536.799 527.16 534.699 528.46C532.499 529.76 530.099 530.56 527.699 530.96C525.299 531.36 522.799 531.36 520.399 530.96C515.499 530.26 510.999 528.16 507.099 525.46C503.199 522.76 499.799 519.26 496.899 515.56L496.799 515.46V515.36L496.899 515.46L489.699 505.96L482.499 496.46C480.099 493.26 477.799 490.06 475.399 486.86C472.999 483.66 470.699 480.46 468.399 477.16C470.999 480.16 473.599 483.16 476.099 486.26C478.699 489.26 481.299 492.36 483.799 495.36L491.399 504.56L498.899 513.86L498.999 513.96L499.099 514.06L498.999 513.96C501.899 517.46 505.099 520.66 508.799 523.16C512.499 525.66 516.599 527.46 520.899 528.06C525.199 528.66 529.699 528.16 533.299 525.96C534.199 525.46 534.999 524.76 535.699 524.06C536.399 523.36 536.999 522.56 537.299 521.66C537.399 521.46 537.499 521.26 537.499 521.06C537.599 520.86 537.599 520.66 537.599 520.36C537.599 520.26 537.599 520.16 537.599 520.06V519.66V518.86C537.599 518.36 537.599 517.76 537.599 517.16C537.599 516.56 537.599 516.06 537.499 515.46C536.499 506.56 533.199 497.86 528.599 490.06C523.799 482.26 517.699 475.36 510.699 469.26Z" fill="#8C2400"/>
</g>
</g>
<g style="mix-blend-mode:soft-light">
<path d="M617.9 460.76L546.2 404.46C541.8 401.06 536.1 400.36 531.3 402.16C530.4 401.76 529.4 401.56 528.4 401.36C526.2 400.96 524 401.16 521.9 401.66C519.7 402.26 517.5 402.86 515.3 403.46C513.1 404.16 510.8 404.86 508.6 405.56C506.4 406.26 504.1 407.06 501.9 407.86C499.7 408.66 497.4 409.56 495.3 410.46C493.1 411.36 490.9 412.36 488.7 413.26C486.5 414.26 484.4 415.26 482.3 416.36C480.2 417.46 478.1 418.56 476.1 419.66C474.1 420.76 472.1 421.96 470.1 423.16C468.2 424.36 466.3 425.66 464.4 426.96C452.7 435.16 436 449.16 442.6 465.06C443.9 468.26 445.7 470.36 447.8 471.66C446.2 472.26 444.7 473.16 443.3 474.26C435.6 480.36 434.3 491.46 440.3 499.26L505.4 581.96C505.4 581.96 525.6 615.56 574 608.26C625.4 600.56 628.1 549.16 632.2 522.56L635.1 505.06C637.9 488.26 631.3 471.26 617.9 460.76ZM538.9 520.26C538.5 529.56 516.2 538.26 497.8 514.86C497.8 514.86 497.8 514.86 497.7 514.76L468.2 477.26C466.5 475.16 464.5 473.56 462.2 472.36C466.4 471.16 470.5 469.26 474 467.76C486.7 462.16 499 460.06 510.7 469.26C534.4 487.76 539.3 510.96 538.9 520.26Z" fill="url(#paint38_radial_901_1299)"/>
</g>
<defs>
<filter id="filter0_f_901_1299" x="44.1387" y="252.119" width="529.855" height="359.915" filterUnits="userSpaceOnUse" color-interpolation-filters="sRGB">
<feFlood flood-opacity="0" result="BackgroundImageFix"/>
<feBlend mode="normal" in="SourceGraphic" in2="BackgroundImageFix" result="shape"/>
<feGaussianBlur stdDeviation="12.5" result="effect1_foregroundBlur_901_1299"/>
</filter>
<filter id="filter1_f_901_1299" x="29.1387" y="237.119" width="559.855" height="389.915" filterUnits="userSpaceOnUse" color-interpolation-filters="sRGB">
<feFlood flood-opacity="0" result="BackgroundImageFix"/>
<feBlend mode="normal" in="SourceGraphic" in2="BackgroundImageFix" result="shape"/>
<feGaussianBlur stdDeviation="20" result="effect1_foregroundBlur_901_1299"/>
</filter>
<filter id="filter2_f_901_1299" x="586.014" y="148.532" width="183.891" height="151.978" filterUnits="userSpaceOnUse" color-interpolation-filters="sRGB">
<feFlood flood-opacity="0" result="BackgroundImageFix"/>
<feBlend mode="normal" in="SourceGraphic" in2="BackgroundImageFix" result="shape"/>
<feGaussianBlur stdDeviation="10" result="effect1_foregroundBlur_901_1299"/>
</filter>
<filter id="filter3_f_901_1299" x="581.213" y="160.531" width="40.8789" height="144.884" filterUnits="userSpaceOnUse" color-interpolation-filters="sRGB">
<feFlood flood-opacity="0" result="BackgroundImageFix"/>
<feBlend mode="normal" in="SourceGraphic" in2="BackgroundImageFix" result="shape"/>
<feGaussianBlur stdDeviation="5" result="effect1_foregroundBlur_901_1299"/>
</filter>
<filter id="filter4_f_901_1299" x="590.254" y="133.522" width="192.459" height="154.666" filterUnits="userSpaceOnUse" color-interpolation-filters="sRGB">
<feFlood flood-opacity="0" result="BackgroundImageFix"/>
<feBlend mode="normal" in="SourceGraphic" in2="BackgroundImageFix" result="shape"/>
<feGaussianBlur stdDeviation="10" result="effect1_foregroundBlur_901_1299"/>
</filter>
<filter id="filter5_f_901_1299" x="590.254" y="133.522" width="192.459" height="154.666" filterUnits="userSpaceOnUse" color-interpolation-filters="sRGB">
<feFlood flood-opacity="0" result="BackgroundImageFix"/>
<feBlend mode="normal" in="SourceGraphic" in2="BackgroundImageFix" result="shape"/>
<feGaussianBlur stdDeviation="10" result="effect1_foregroundBlur_901_1299"/>
</filter>
<filter id="filter6_f_901_1299" x="563.232" y="126.751" width="223.891" height="191.978" filterUnits="userSpaceOnUse" color-interpolation-filters="sRGB">
<feFlood flood-opacity="0" result="BackgroundImageFix"/>
<feBlend mode="normal" in="SourceGraphic" in2="BackgroundImageFix" result="shape"/>
<feGaussianBlur stdDeviation="20" result="effect1_foregroundBlur_901_1299"/>
</filter>
<filter id="filter7_f_901_1299" x="631.052" y="251.316" width="132.594" height="73.9736" filterUnits="userSpaceOnUse" color-interpolation-filters="sRGB">
<feFlood flood-opacity="0" result="BackgroundImageFix"/>
<feBlend mode="normal" in="SourceGraphic" in2="BackgroundImageFix" result="shape"/>
<feGaussianBlur stdDeviation="5" result="effect1_foregroundBlur_901_1299"/>
</filter>
<filter id="filter8_f_901_1299" x="671.812" y="161.764" width="62.8213" height="45.9272" filterUnits="userSpaceOnUse" color-interpolation-filters="sRGB">
<feFlood flood-opacity="0" result="BackgroundImageFix"/>
<feBlend mode="normal" in="SourceGraphic" in2="BackgroundImageFix" result="shape"/>
<feGaussianBlur stdDeviation="3" result="effect1_foregroundBlur_901_1299"/>
</filter>
<filter id="filter9_f_901_1299" x="673.812" y="163.764" width="58.8213" height="41.9272" filterUnits="userSpaceOnUse" color-interpolation-filters="sRGB">
<feFlood flood-opacity="0" result="BackgroundImageFix"/>
<feBlend mode="normal" in="SourceGraphic" in2="BackgroundImageFix" result="shape"/>
<feGaussianBlur stdDeviation="2" result="effect1_foregroundBlur_901_1299"/>
</filter>
<filter id="filter10_f_901_1299" x="669.812" y="159.764" width="66.8213" height="49.9272" filterUnits="userSpaceOnUse" color-interpolation-filters="sRGB">
<feFlood flood-opacity="0" result="BackgroundImageFix"/>
<feBlend mode="normal" in="SourceGraphic" in2="BackgroundImageFix" result="shape"/>
<feGaussianBlur stdDeviation="4" result="effect1_foregroundBlur_901_1299"/>
</filter>
<filter id="filter11_f_901_1299" x="372.777" y="395.46" width="148.021" height="148.02" filterUnits="userSpaceOnUse" color-interpolation-filters="sRGB">
<feFlood flood-opacity="0" result="BackgroundImageFix"/>
<feBlend mode="normal" in="SourceGraphic" in2="BackgroundImageFix" result="shape"/>
<feGaussianBlur stdDeviation="17.5" result="effect1_foregroundBlur_901_1299"/>
</filter>
<filter id="filter12_f_901_1299" x="19" y="100.064" width="565" height="338.57" filterUnits="userSpaceOnUse" color-interpolation-filters="sRGB">
<feFlood flood-opacity="0" result="BackgroundImageFix"/>
<feBlend mode="normal" in="SourceGraphic" in2="BackgroundImageFix" result="shape"/>
<feGaussianBlur stdDeviation="20" result="effect1_foregroundBlur_901_1299"/>
</filter>
<filter id="filter13_f_901_1299" x="15" y="88.0641" width="520.306" height="308.332" filterUnits="userSpaceOnUse" color-interpolation-filters="sRGB">
<feFlood flood-opacity="0" result="BackgroundImageFix"/>
<feBlend mode="normal" in="SourceGraphic" in2="BackgroundImageFix" result="shape"/>
<feGaussianBlur stdDeviation="20" result="effect1_foregroundBlur_901_1299"/>
</filter>
<filter id="filter14_f_901_1299" x="401.536" y="379.147" width="269.198" height="278.151" filterUnits="userSpaceOnUse" color-interpolation-filters="sRGB">
<feFlood flood-opacity="0" result="BackgroundImageFix"/>
<feBlend mode="normal" in="SourceGraphic" in2="BackgroundImageFix" result="shape"/>
<feGaussianBlur stdDeviation="17.5" result="effect1_foregroundBlur_901_1299"/>
</filter>
<filter id="filter15_f_901_1299" x="418.062" y="452.061" width="104.338" height="146.9" filterUnits="userSpaceOnUse" color-interpolation-filters="sRGB">
<feFlood flood-opacity="0" result="BackgroundImageFix"/>
<feBlend mode="normal" in="SourceGraphic" in2="BackgroundImageFix" result="shape"/>
<feGaussianBlur stdDeviation="8.5" result="effect1_foregroundBlur_901_1299"/>
</filter>
<filter id="filter16_f_901_1299" x="431.795" y="412.416" width="162.805" height="75.3444" filterUnits="userSpaceOnUse" color-interpolation-filters="sRGB">
<feFlood flood-opacity="0" result="BackgroundImageFix"/>
<feBlend mode="normal" in="SourceGraphic" in2="BackgroundImageFix" result="shape"/>
<feGaussianBlur stdDeviation="7.5" result="effect1_foregroundBlur_901_1299"/>
</filter>
<filter id="filter17_f_901_1299" x="431.795" y="412.416" width="162.805" height="75.3444" filterUnits="userSpaceOnUse" color-interpolation-filters="sRGB">
<feFlood flood-opacity="0" result="BackgroundImageFix"/>
<feBlend mode="normal" in="SourceGraphic" in2="BackgroundImageFix" result="shape"/>
<feGaussianBlur stdDeviation="7.5" result="effect1_foregroundBlur_901_1299"/>
</filter>
<filter id="filter18_f_901_1299" x="422.888" y="381.781" width="215.312" height="107.079" filterUnits="userSpaceOnUse" color-interpolation-filters="sRGB">
<feFlood flood-opacity="0" result="BackgroundImageFix"/>
<feBlend mode="normal" in="SourceGraphic" in2="BackgroundImageFix" result="shape"/>
<feGaussianBlur stdDeviation="9" result="effect1_foregroundBlur_901_1299"/>
</filter>
<filter id="filter19_f_901_1299" x="422.888" y="381.781" width="215.312" height="107.079" filterUnits="userSpaceOnUse" color-interpolation-filters="sRGB">
<feFlood flood-opacity="0" result="BackgroundImageFix"/>
<feBlend mode="normal" in="SourceGraphic" in2="BackgroundImageFix" result="shape"/>
<feGaussianBlur stdDeviation="9" result="effect1_foregroundBlur_901_1299"/>
</filter>
<filter id="filter20_f_901_1299" x="511.1" y="380.882" width="146.481" height="247.479" filterUnits="userSpaceOnUse" color-interpolation-filters="sRGB">
<feFlood flood-opacity="0" result="BackgroundImageFix"/>
<feBlend mode="normal" in="SourceGraphic" in2="BackgroundImageFix" result="shape"/>
<feGaussianBlur stdDeviation="10" result="effect1_foregroundBlur_901_1299"/>
</filter>
<filter id="filter21_f_901_1299" x="448.399" y="449.26" width="112" height="102" filterUnits="userSpaceOnUse" color-interpolation-filters="sRGB">
<feFlood flood-opacity="0" result="BackgroundImageFix"/>
<feBlend mode="normal" in="SourceGraphic" in2="BackgroundImageFix" result="shape"/>
<feGaussianBlur stdDeviation="10" result="effect1_foregroundBlur_901_1299"/>
</filter>
<radialGradient id="paint0_radial_901_1299" cx="0" cy="0" r="1" gradientUnits="userSpaceOnUse" gradientTransform="translate(243.262 108.156) rotate(75.0899) scale(482)">
<stop stop-color="#FFDE43"/>
<stop offset="1" stop-color="#FFBC00"/>
</radialGradient>
<radialGradient id="paint1_radial_901_1299" cx="0" cy="0" r="1" gradientUnits="userSpaceOnUse" gradientTransform="translate(259.858 170.484) rotate(75.0899) scale(417.5)">
<stop stop-color="white" stop-opacity="0.5"/>
<stop offset="0.782278"/>
</radialGradient>
<radialGradient id="paint2_radial_901_1299" cx="0" cy="0" r="1" gradientUnits="userSpaceOnUse" gradientTransform="translate(259.858 170.484) rotate(75.0899) scale(417.5)">
<stop stop-color="white" stop-opacity="0.5"/>
<stop offset="0.782278"/>
</radialGradient>
<radialGradient id="paint3_radial_901_1299" cx="0" cy="0" r="1" gradientUnits="userSpaceOnUse" gradientTransform="translate(229.753 57.4234) rotate(75.0899) scale(534.5 722.835)">
<stop offset="0.0922635" stop-color="white"/>
<stop offset="0.670207" stop-color="white" stop-opacity="0"/>
</radialGradient>
<linearGradient id="paint4_linear_901_1299" x1="703.456" y1="183.458" x2="618.611" y2="315.94" gradientUnits="userSpaceOnUse">
<stop stop-color="#FF0000"/>
<stop offset="1" stop-color="#610003"/>
</linearGradient>
<linearGradient id="paint5_linear_901_1299" x1="703.457" y1="183.458" x2="618.612" y2="315.94" gradientUnits="userSpaceOnUse">
<stop stop-color="#FF0000"/>
<stop offset="1" stop-color="#610003"/>
</linearGradient>
<linearGradient id="paint6_linear_901_1299" x1="733.647" y1="296.203" x2="588.438" y2="203.207" gradientUnits="userSpaceOnUse">
<stop stop-color="#FF8F00"/>
<stop offset="0.0143476" stop-color="#FF9001" stop-opacity="0.9857"/>
<stop offset="0.2987" stop-color="#FF9912" stop-opacity="0.7013"/>
<stop offset="0.6103" stop-color="#FF9F1C" stop-opacity="0.3897"/>
<stop offset="1" stop-color="#FFA11F" stop-opacity="0"/>
</linearGradient>
<linearGradient id="paint7_linear_901_1299" x1="588.478" y1="203.232" x2="733.687" y2="296.228" gradientUnits="userSpaceOnUse">
<stop stop-color="#FF8F00"/>
<stop offset="0.0143476" stop-color="#FF9001" stop-opacity="0.9857"/>
<stop offset="0.2987" stop-color="#FF9912" stop-opacity="0.7013"/>
<stop offset="0.6103" stop-color="#FF9F1C" stop-opacity="0.3897"/>
<stop offset="1" stop-color="#FFA11F" stop-opacity="0"/>
</linearGradient>
<linearGradient id="paint8_linear_901_1299" x1="703.456" y1="183.458" x2="618.611" y2="315.94" gradientUnits="userSpaceOnUse">
<stop stop-color="#FF0000"/>
<stop offset="1" stop-color="#610003"/>
</linearGradient>
<linearGradient id="paint9_linear_901_1299" x1="387.035" y1="469.194" x2="446.213" y2="461.344" gradientUnits="userSpaceOnUse">
<stop stop-color="#FFDE43"/>
<stop offset="0.2241" stop-color="#FED93F"/>
<stop offset="0.5058" stop-color="#FCC934"/>
<stop offset="0.8173" stop-color="#F9AF21"/>
<stop offset="1" stop-color="#F79D14"/>
</linearGradient>
<radialGradient id="paint10_radial_901_1299" cx="0" cy="0" r="1" gradientUnits="userSpaceOnUse" gradientTransform="translate(416.624 465.269) rotate(-7.55612) scale(40.6547 40.6547)">
<stop stop-color="#743C1C"/>
<stop offset="0.4016" stop-color="#5E2E11"/>
<stop offset="1" stop-color="#401C02"/>
</radialGradient>
<radialGradient id="paint11_radial_901_1299" cx="0" cy="0" r="1" gradientUnits="userSpaceOnUse" gradientTransform="translate(243.262 108.156) rotate(75.0899) scale(482)">
<stop stop-color="#FFDE43"/>
<stop offset="1" stop-color="#FFBC00"/>
</radialGradient>
<radialGradient id="paint12_radial_901_1299" cx="0" cy="0" r="1" gradientUnits="userSpaceOnUse" gradientTransform="translate(243.262 108.156) rotate(75.0899) scale(482)">
<stop stop-color="#FFDE43"/>
<stop offset="1" stop-color="#FFBC00"/>
</radialGradient>
<linearGradient id="paint13_linear_901_1299" x1="57.6484" y1="262.284" x2="557.431" y2="270.429" gradientUnits="userSpaceOnUse">
<stop stop-color="#F2F2F2"/>
<stop offset="1" stop-color="#CCCCCC"/>
</linearGradient>
<linearGradient id="paint14_linear_901_1299" x1="0.126297" y1="182.888" x2="583.002" y2="182.888" gradientUnits="userSpaceOnUse">
<stop offset="0.005618" stop-color="#F2F2F2"/>
<stop offset="0.5" stop-color="#F2F2F2"/>
<stop offset="0.584" stop-color="#EFEFEF"/>
<stop offset="1" stop-color="#E6E6E6"/>
</linearGradient>
<linearGradient id="paint15_linear_901_1299" x1="29.9966" y1="168.054" x2="145.763" y2="168.054" gradientUnits="userSpaceOnUse">
<stop stop-color="#CCCCCC"/>
<stop offset="1" stop-color="white"/>
</linearGradient>
<linearGradient id="paint16_linear_901_1299" x1="435.453" y1="102.546" x2="545.705" y2="102.546" gradientUnits="userSpaceOnUse">
<stop stop-color="white"/>
<stop offset="1" stop-color="#CCCCCC"/>
</linearGradient>
<linearGradient id="paint17_linear_901_1299" x1="465.26" y1="134.785" x2="582.998" y2="134.785" gradientUnits="userSpaceOnUse">
<stop stop-color="#CCCCCC"/>
<stop offset="1" stop-color="white"/>
</linearGradient>
<linearGradient id="paint18_linear_901_1299" x1="94.5775" y1="104.049" x2="279.445" y2="104.049" gradientUnits="userSpaceOnUse">
<stop stop-color="white"/>
<stop offset="1" stop-color="#CCCCCC"/>
</linearGradient>
<linearGradient id="paint19_linear_901_1299" x1="215.775" y1="73.1521" x2="454.883" y2="73.1521" gradientUnits="userSpaceOnUse">
<stop stop-color="#CCCCCC"/>
<stop offset="1" stop-color="white"/>
</linearGradient>
<linearGradient id="paint20_linear_901_1299" x1="335.329" y1="146.313" x2="335.329" y2="-0.0088959" gradientUnits="userSpaceOnUse">
<stop stop-color="#B3B3B3"/>
<stop offset="0.2536" stop-color="#C7C7C7" stop-opacity="0.7464"/>
<stop offset="1" stop-color="white" stop-opacity="0"/>
</linearGradient>
<linearGradient id="paint21_linear_901_1299" x1="95.1093" y1="69.3021" x2="262.108" y2="69.3021" gradientUnits="userSpaceOnUse">
<stop stop-color="#CCCCCC"/>
<stop offset="1" stop-color="white"/>
</linearGradient>
<linearGradient id="paint22_linear_901_1299" x1="435.453" y1="59.2866" x2="545.231" y2="59.2866" gradientUnits="userSpaceOnUse">
<stop stop-color="#CCCCCC"/>
<stop offset="1" stop-color="white"/>
</linearGradient>
<linearGradient id="paint23_linear_901_1299" x1="215.775" y1="46.5377" x2="454.763" y2="46.5377" gradientUnits="userSpaceOnUse">
<stop stop-color="white"/>
<stop offset="1" stop-color="#CCCCCC"/>
</linearGradient>
<linearGradient id="paint24_linear_901_1299" x1="0.123512" y1="254.812" x2="91.2447" y2="254.812" gradientUnits="userSpaceOnUse">
<stop stop-color="white"/>
<stop offset="1" stop-color="#CCCCCC"/>
</linearGradient>
<linearGradient id="paint25_linear_901_1299" x1="0.12355" y1="230.272" x2="65.7114" y2="230.272" gradientUnits="userSpaceOnUse">
<stop stop-color="#CCCCCC"/>
<stop offset="1" stop-color="white"/>
</linearGradient>
<linearGradient id="paint26_linear_901_1299" x1="125.441" y1="211.275" x2="48.2619" y2="119.296" gradientUnits="userSpaceOnUse">
<stop stop-color="#B3B3B3"/>
<stop offset="0.2536" stop-color="#C7C7C7" stop-opacity="0.7464"/>
<stop offset="1" stop-color="white" stop-opacity="0"/>
</linearGradient>
<linearGradient id="paint27_linear_901_1299" x1="465.26" y1="134.785" x2="582.998" y2="134.785" gradientUnits="userSpaceOnUse">
<stop stop-color="#B3B3B3"/>
<stop offset="0.2536" stop-color="#C7C7C7" stop-opacity="0.7464"/>
<stop offset="1" stop-color="white" stop-opacity="0"/>
</linearGradient>
<linearGradient id="paint28_linear_901_1299" x1="577.639" y1="144.337" x2="541.1" y2="81.0499" gradientUnits="userSpaceOnUse">
<stop stop-color="#CCCCCC"/>
<stop offset="1" stop-color="white"/>
</linearGradient>
<linearGradient id="paint29_linear_901_1299" x1="29.9966" y1="131.185" x2="101.001" y2="131.185" gradientUnits="userSpaceOnUse">
<stop stop-color="#CCCCCC"/>
<stop offset="0.651042" stop-color="white"/>
</linearGradient>
<radialGradient id="paint30_radial_901_1299" cx="0" cy="0" r="1" gradientUnits="userSpaceOnUse" gradientTransform="translate(243.262 108.156) rotate(75.0899) scale(482)">
<stop stop-color="#FFDE43"/>
<stop offset="1" stop-color="#FFBC00"/>
</radialGradient>
<linearGradient id="paint31_linear_901_1299" x1="59.0397" y1="261.348" x2="544.019" y2="261.348" gradientUnits="userSpaceOnUse">
<stop stop-color="#CCCCCC"/>
<stop offset="1" stop-color="white"/>
</linearGradient>
<radialGradient id="paint32_radial_901_1299" cx="0" cy="0" r="1" gradientUnits="userSpaceOnUse" gradientTransform="translate(243.262 108.156) rotate(75.0899) scale(482)">
<stop stop-color="#FFDE43"/>
<stop offset="1" stop-color="#FFBC00"/>
</radialGradient>
<linearGradient id="paint33_linear_901_1299" x1="59.0397" y1="261.349" x2="544.019" y2="261.349" gradientUnits="userSpaceOnUse">
<stop stop-color="#CCCCCC"/>
<stop offset="1" stop-color="white"/>
</linearGradient>
<radialGradient id="paint34_radial_901_1299" cx="0" cy="0" r="1" gradientUnits="userSpaceOnUse" gradientTransform="translate(243.262 108.156) rotate(75.0899) scale(482)">
<stop stop-color="#FFDE43"/>
<stop offset="1" stop-color="#FFBC00"/>
</radialGradient>
<radialGradient id="paint35_radial_901_1299" cx="0" cy="0" r="1" gradientUnits="userSpaceOnUse" gradientTransform="translate(530.322 305.752) scale(265.826 265.826)">
<stop stop-color="#FFDE43"/>
<stop offset="0.2821" stop-color="#FFDB40"/>
<stop offset="0.5258" stop-color="#FFD038"/>
<stop offset="0.7552" stop-color="#FFBE2B"/>
<stop offset="0.9747" stop-color="#FFA519"/>
<stop offset="1" stop-color="#FFA216"/>
</radialGradient>
<linearGradient id="paint36_linear_901_1299" x1="595.619" y1="655.689" x2="498.867" y2="386.874" gradientUnits="userSpaceOnUse">
<stop offset="0.0409618" stop-color="#E65107"/>
<stop offset="0.2979" stop-color="#EE7F1A" stop-opacity="0.7321"/>
<stop offset="0.621" stop-color="#F7B230" stop-opacity="0.3952"/>
<stop offset="0.8651" stop-color="#FDD23E" stop-opacity="0.1406"/>
<stop offset="1" stop-color="#FFDE43" stop-opacity="0"/>
</linearGradient>
<linearGradient id="paint37_linear_901_1299" x1="441.561" y1="475.683" x2="521.007" y2="570.363" gradientUnits="userSpaceOnUse">
<stop offset="0.0139674" stop-color="#FFDE43"/>
<stop offset="0.6477" stop-color="#FFB424" stop-opacity="0.3573"/>
<stop offset="1" stop-color="#FFA216" stop-opacity="0"/>
</linearGradient>
<radialGradient id="paint38_radial_901_1299" cx="0" cy="0" r="1" gradientUnits="userSpaceOnUse" gradientTransform="translate(530.322 305.752) scale(265.826 265.826)">
<stop stop-color="#FFA316"/>
<stop offset="0.0654605" stop-color="#F69C1C"/>
<stop offset="0.2759" stop-color="#DD8A2C"/>
<stop offset="0.4959" stop-color="#CB7C37"/>
<stop offset="0.7295" stop-color="#C0753E"/>
<stop offset="1" stop-color="#BD7240"/>
</radialGradient>
</defs>
</svg>
