<svg width="349" height="358" viewBox="0 0 349 358" fill="none" xmlns="http://www.w3.org/2000/svg">
<ellipse cx="174.5" cy="179" rx="174.5" ry="179" fill="#FFD700"/>
<mask id="mask0_3_22" style="mask-type:luminance" maskUnits="userSpaceOnUse" x="107" y="41" width="136" height="181">
<path d="M243 41H107V222H243V41Z" fill="white"/>
</mask>
<g mask="url(#mask0_3_22)">
<path d="M214.95 86.0851C229.288 75.4626 236.841 62.1426 231.82 56.3343C226.799 50.526 211.106 54.4287 196.769 65.0512C182.432 75.6739 174.879 88.9937 179.9 94.8021C184.92 100.61 200.613 96.7077 214.95 86.0851Z" fill="#29C16E"/>
<path d="M166.864 96.5166C171.18 92.5215 165.073 80.3908 153.226 69.422C141.378 58.4532 128.276 52.8 123.961 56.7951C119.646 60.7901 125.752 72.9208 137.599 83.8896C149.447 94.8584 162.549 100.512 166.864 96.5166Z" fill="#29C16E"/>
<path d="M224.933 155.538C231.207 150.89 226.992 136.362 215.518 123.087C204.045 109.813 189.658 102.821 183.384 107.469C177.111 112.117 181.326 126.646 192.799 139.919C204.273 153.194 218.66 160.186 224.933 155.538Z" fill="#EF3C56"/>
<path d="M121.04 160.544C121.04 174.371 126.973 187.633 137.533 197.41C148.094 207.188 162.417 212.68 177.353 212.68C208.454 212.68 254.878 165.451 225.308 156.543C192.866 146.772 177.904 109.419 171.18 108.721C140.274 105.51 121.04 131.75 121.04 160.544Z" fill="#EF3C56"/>
<path d="M107 48.8687C107.016 60.1102 110.278 71.1435 116.447 80.8257C122.617 90.5079 131.47 98.487 142.09 103.937C136.524 106.795 131.417 110.359 126.918 114.527C116.824 123.862 110.157 135.901 107.86 148.938C105.563 161.974 107.752 175.35 114.118 187.172C120.484 198.993 130.705 208.662 143.333 214.81C155.961 220.958 170.357 223.274 184.485 221.429C198.613 219.584 211.757 213.673 222.056 204.532C232.356 195.39 239.288 183.482 241.875 170.492C244.462 157.501 242.571 144.086 236.469 132.146C230.367 120.206 220.364 110.344 207.876 103.957C218.51 98.5145 227.376 90.5354 233.553 80.8484C239.73 71.1613 242.993 60.1197 243.002 48.8704C243.002 47.8369 242.783 46.8134 242.355 45.8585C241.929 44.9035 241.302 44.0359 240.513 43.305C239.723 42.5741 238.786 41.9944 237.755 41.5989C236.724 41.2034 235.618 40.9999 234.502 41C225.568 40.9779 216.717 42.5965 208.464 45.7623C200.21 48.9281 192.717 53.578 186.417 59.4431C181.916 63.6089 178.066 68.337 174.98 73.4898C169.098 63.6538 160.481 55.454 150.022 49.7415C139.563 44.0289 127.643 41.0115 115.5 41.0026C114.384 41.0023 113.279 41.2056 112.248 41.6008C111.217 41.996 110.28 42.5754 109.49 43.3058C108.701 44.0362 108.075 44.9035 107.648 45.8579C107.22 46.8124 107 47.8355 107 48.8687ZM184.367 95.275C186.259 85.9148 191.164 77.3029 198.437 70.5691C205.709 63.8353 215.011 59.2942 225.121 57.5417C223.214 66.8961 218.305 75.5009 211.035 82.2323C203.765 88.9638 194.471 93.5092 184.367 95.275ZM211.046 125.671C218.321 132.397 223.228 141.004 225.121 150.359C215.023 148.592 205.732 144.048 198.465 137.319C191.198 130.59 186.289 121.991 184.38 112.641C194.485 114.393 203.781 118.936 211.046 125.671ZM138.937 125.656C146.562 118.559 156.442 113.909 167.128 112.388C169.131 126.042 175.914 138.712 186.438 148.455C196.962 158.199 210.646 164.48 225.394 166.335C224.152 173.702 221.042 180.692 216.32 186.732C211.6 192.772 205.4 197.692 198.23 201.087C191.061 204.483 183.124 206.258 175.071 206.269C167.018 206.278 159.076 204.523 151.897 201.145C144.717 197.767 138.504 192.863 133.765 186.834C129.026 180.806 125.896 173.824 124.632 166.461C123.367 159.097 124.005 151.561 126.491 144.469C128.977 137.377 133.242 130.932 138.937 125.659V125.656ZM124.875 57.5528C134.974 59.3203 144.264 63.8649 151.532 70.5936C158.8 77.3224 163.708 85.923 165.617 95.2733C155.519 93.5054 146.23 88.9607 138.963 82.2319C131.695 75.5031 126.787 66.9027 124.879 57.5528H124.875Z" fill="#0E1E28"/>
</g>
<path d="M300.572 219H284.191C283.222 214.288 281.527 210.149 279.105 206.582C276.727 203.016 273.821 200.021 270.386 197.599C266.996 195.134 263.231 193.284 259.092 192.051C254.953 190.818 250.637 190.202 246.146 190.202C237.955 190.202 230.536 192.271 223.886 196.411C217.281 200.55 212.019 206.648 208.1 214.707C204.225 222.765 202.288 232.651 202.288 244.364C202.288 256.077 204.225 265.962 208.1 274.021C212.019 282.079 217.281 288.178 223.886 292.317C230.536 296.456 237.955 298.526 246.146 298.526C250.637 298.526 254.953 297.909 259.092 296.676C263.231 295.443 266.996 293.616 270.386 291.194C273.821 288.728 276.727 285.712 279.105 282.145C281.527 278.534 283.222 274.395 284.191 269.727H300.572C299.339 276.641 297.093 282.827 293.835 288.288C290.576 293.748 286.525 298.393 281.681 302.224C276.837 306.011 271.399 308.896 265.367 310.877C259.378 312.859 252.971 313.849 246.146 313.849C234.609 313.849 224.349 311.031 215.366 305.395C206.383 299.759 199.315 291.744 194.163 281.352C189.011 270.96 186.435 258.631 186.435 244.364C186.435 230.097 189.011 217.767 194.163 207.375C199.315 196.983 206.383 188.969 215.366 183.332C224.349 177.696 234.609 174.878 246.146 174.878C252.971 174.878 259.378 175.869 265.367 177.85C271.399 179.832 276.837 182.738 281.681 186.569C286.525 190.356 290.576 194.979 293.835 200.44C297.093 205.856 299.339 212.043 300.572 219Z" fill="white"/>
<path d="M164.572 219H148.191C147.222 214.288 145.527 210.149 143.105 206.582C140.727 203.016 137.821 200.021 134.386 197.599C130.996 195.134 127.231 193.284 123.092 192.051C118.953 190.818 114.637 190.202 110.146 190.202C101.955 190.202 94.5356 192.271 87.8865 196.411C81.2813 200.55 76.0193 206.648 72.1002 214.707C68.2252 222.765 66.2877 232.651 66.2877 244.364C66.2877 256.077 68.2252 265.962 72.1002 274.021C76.0193 282.079 81.2813 288.178 87.8865 292.317C94.5356 296.456 101.955 298.526 110.146 298.526C114.637 298.526 118.953 297.909 123.092 296.676C127.231 295.443 130.996 293.616 134.386 291.194C137.821 288.728 140.727 285.712 143.105 282.145C145.527 278.534 147.222 274.395 148.191 269.727H164.572C163.339 276.641 161.093 282.827 157.835 288.288C154.576 293.748 150.525 298.393 145.681 302.224C140.837 306.011 135.399 308.896 129.367 310.877C123.378 312.859 116.971 313.849 110.146 313.849C98.6088 313.849 88.3488 311.031 79.3659 305.395C70.3829 299.759 63.3154 291.744 58.1634 281.352C53.0115 270.96 50.4355 258.631 50.4355 244.364C50.4355 230.097 53.0115 217.767 58.1634 207.375C63.3154 196.983 70.3829 188.969 79.3659 183.332C88.3488 177.696 98.6088 174.878 110.146 174.878C116.971 174.878 123.378 175.869 129.367 177.85C135.399 179.832 140.837 182.738 145.681 186.569C150.525 190.356 154.576 194.979 157.835 200.44C161.093 205.856 163.339 212.043 164.572 219Z" fill="white"/>
</svg>
